<svg width="888" height="445" viewBox="0 0 888 445" fill="none" xmlns="http://www.w3.org/2000/svg">
<rect width="888" height="445" fill="#E5E5E5"/>
<g clip-path="url(#clip0)">
<rect width="887.5" height="444.01" fill="#84A59D"/>
<path d="M412.711 406.048L422.068 403.351C423.728 399.052 425.144 394.663 426.31 390.204L421.916 390.044L426.707 388.663C428.094 383.136 428.662 379.387 428.662 379.387C428.662 379.387 409.686 385.039 395.396 396.068L393.633 408.438L391.946 398.927C390.391 400.307 388.924 401.784 387.555 403.348C373.797 419.165 367.81 436.48 374.183 442.023C380.555 447.565 396.873 439.236 410.631 423.419C414.888 418.283 418.333 412.524 420.846 406.344L412.711 406.048Z" fill="#E6E6E6"/>
<path d="M58.2346 349.692L52.9016 328.658C43.4454 324.65 33.7707 321.179 23.9236 318.261L23.2503 328.037L20.5198 317.267C8.30782 313.78 0 312.244 0 312.244C0 312.244 11.222 354.918 34.7592 387.542L62.1852 392.36L40.8787 395.432C43.8407 398.995 47.0239 402.368 50.4094 405.532C84.6494 437.314 122.786 451.896 135.591 438.101C148.395 424.307 131.018 387.36 96.7779 355.577C86.1631 345.725 72.8288 337.818 59.4811 331.595L58.2346 349.692Z" fill="#E6E6E6"/>
<path d="M108.955 326.849L115.263 306.086C109.239 297.768 102.752 289.796 95.8302 282.208L90.2008 290.228L93.4303 279.597C84.7788 270.3 78.4609 264.691 78.4609 264.691C78.4609 264.691 66.0093 307.022 69.2946 347.116L90.2823 365.417L70.455 357.033C71.1488 361.615 72.1301 366.148 73.393 370.606C86.2758 415.512 111.385 447.707 129.477 442.517C147.568 437.327 151.791 396.716 138.908 351.811C134.914 337.889 127.586 324.228 119.377 312.002L108.955 326.849Z" fill="#E6E6E6"/>
<path d="M194.275 413.765L196.478 423.676L211.894 422.574L210.793 411.563L194.275 413.765Z" fill="#FFB8B8"/>
<path d="M155.735 413.765L153.533 423.676L138.116 422.574L139.218 411.563L155.735 413.765Z" fill="#FFB8B8"/>
<path d="M151.33 92.2284C162.885 92.2284 172.252 82.8613 172.252 71.3065C172.252 59.7516 162.885 50.3846 151.33 50.3846C139.775 50.3846 130.408 59.7516 130.408 71.3065C130.408 82.8613 139.775 92.2284 151.33 92.2284Z" fill="#FFB8B8"/>
<path d="M138.116 76.812L132.611 102.139L160.139 110.948L159.038 79.015L138.116 76.812Z" fill="#FFB8B8"/>
<path d="M148.027 105.442L134.173 94.9531C134.173 94.9531 131.509 91.1272 130.408 94.4307C129.307 97.7341 119.397 109.847 119.397 109.847L127.105 200.141L185.466 201.243C185.466 201.243 162.661 95.9837 159.749 99.6118C156.836 103.24 149.128 103.24 148.027 105.442Z" fill="#D0CDE1"/>
<path d="M159.589 92.7789C159.589 92.7789 155.184 97.1835 157.387 100.487C159.589 103.79 157.937 109.916 160.139 110.432C162.342 110.948 157.937 148.387 164.544 158.298C171.151 168.208 167.848 193.534 167.848 197.939C167.848 202.344 174.454 228.771 174.454 228.771C174.454 228.771 196.478 230.974 196.478 225.468C196.478 219.962 188.769 181.422 188.769 181.422L195.376 113.15C195.376 113.15 195.376 106.543 187.668 104.341C179.96 102.139 164.544 96.633 164.544 96.633L159.589 92.7789Z" fill="#2F2E41"/>
<path d="M190.972 172.613H185.466C185.466 172.613 156.836 174.815 159.038 162.702C161.241 150.59 183.264 159.399 183.264 159.399L189.871 162.702L190.972 172.613Z" fill="#FFB8B8"/>
<path d="M135.048 90.9272C135.048 90.9272 126.004 96.633 124.903 98.8353C123.801 101.038 98.4749 113.15 98.4749 121.96C98.4749 130.769 106.183 140.679 106.183 140.679L116.093 237.581C116.093 237.581 132.611 243.086 133.712 238.682C134.813 234.277 139.218 137.376 137.015 132.971C134.813 128.566 134.813 99.9365 134.813 99.9365L135.048 90.9272Z" fill="#2F2E41"/>
<path d="M106.183 250.794L105.082 257.401C105.082 257.401 106.183 279.424 114.992 278.323C123.801 277.222 118.296 255.199 118.296 255.199L117.195 250.794H106.183Z" fill="#FFB8B8"/>
<path d="M119.397 194.636C119.397 194.636 120.498 293.739 126.004 325.673C131.509 357.606 133.712 412.664 133.712 412.664C133.712 412.664 148.027 414.866 150.229 415.967C152.431 417.069 157.937 413.765 157.937 413.765L159.038 250.794L179.96 324.572C179.96 324.572 183.264 413.765 189.871 415.967C196.478 418.17 216.298 413.765 216.298 413.765C216.298 413.765 208.59 328.976 206.388 325.673C204.186 322.369 198.68 225.468 189.871 207.849L186.567 195.737C186.567 195.737 123.801 197.939 119.397 194.636Z" fill="#2F2E41"/>
<path d="M197.579 419.271C197.579 419.271 192.073 414.866 192.073 418.17C192.073 421.473 186.567 441.845 193.174 441.845C199.781 441.845 243.827 445.699 242.726 436.889C241.625 428.08 215.127 414.014 215.127 414.014C215.127 414.014 205.287 417.069 204.186 418.17C203.084 419.271 197.579 419.271 197.579 419.271Z" fill="#2F2E41"/>
<path d="M152.431 419.271C152.431 419.271 157.937 414.866 157.937 418.17C157.937 421.473 163.443 441.845 156.836 441.845C150.229 441.845 106.183 445.699 107.284 436.889C108.385 428.08 134.883 414.014 134.883 414.014C134.883 414.014 144.723 417.069 145.824 418.17C146.926 419.271 152.431 419.271 152.431 419.271Z" fill="#2F2E41"/>
<path d="M187.668 112.049L195.376 113.15L210.793 157.196C210.793 157.196 215.197 179.22 208.59 182.523C201.983 185.826 189.514 185.181 189.514 185.181L187.668 160.5L193.174 161.601L187.668 150.59V112.049Z" fill="#2F2E41"/>
<path d="M103.981 117.555L98.4749 121.96C98.4749 121.96 92.9691 178.118 94.0703 183.624C95.1715 189.13 101.778 256.3 101.778 256.3L120.498 251.896L107.284 118.656L103.981 117.555Z" fill="#2F2E41"/>
<path d="M128.184 56.0998C128.184 56.0998 122.093 48.3725 128.184 44.5088V46.4406C128.184 46.4406 141.237 31.9519 149.069 35.8156L156.031 33.8838V35.8156L160.382 33.8838L159.511 36.7815H165.603L162.992 38.7133C162.992 38.7133 183.007 37.7474 170.824 52.2361C170.824 52.2361 176.615 60.923 171.109 65.7557C171.109 65.7557 166.473 55.1339 160.382 58.0316C158.731 58.8883 156.87 59.2527 155.019 59.0814C153.167 58.9102 151.404 58.2105 149.939 57.0657C149.939 57.0657 137.757 56.0998 139.497 61.8953C141.237 67.6907 140.367 69.6226 140.367 69.6226C140.367 69.6226 136.016 72.5203 136.886 74.4521C137.757 76.384 137.757 82.1794 137.757 82.1794C137.757 82.1794 133.406 75.4181 131.665 76.384C129.925 77.3499 120.353 67.6908 128.184 56.0998Z" fill="#2F2E41"/>
<path d="M561.013 123.875L514.712 125.025L508.48 69.8159H561.013V123.875Z" fill="#2F2E41"/>
<path d="M512.002 195.445L495.101 312.623C495.101 312.623 480.454 354.312 479.327 374.592L474.82 403.887L495.101 408.394L516.509 326.144L545.803 251.781L542.423 337.411L535.663 407.267L555.944 410.647L568.338 321.637L581.858 256.287C581.858 256.287 591.999 199.952 576.225 194.318L512.002 195.445Z" fill="#2F2E41"/>
<path d="M493.745 396.696L491.49 424.12C491.49 424.12 515.625 438.073 507.881 440.778C500.137 443.482 489.538 440.003 487.37 439.388C485.08 438.739 480.806 437.704 477.572 436.937C476.075 436.595 474.727 435.781 473.726 434.617C472.725 433.452 472.124 431.997 472.01 430.466L472.004 430.365C471.809 426.99 479.422 397.665 479.422 397.665L493.745 396.696Z" fill="#2F2E41"/>
<path d="M552.354 397.382L554.254 423.605C554.254 423.605 581.737 433.815 574.652 437.95C567.568 442.085 556.499 440.694 554.254 440.505C550.114 440.157 539.81 439.809 539.81 439.809C539.81 439.809 537.906 441.458 537.07 438.183C536.233 434.908 538.185 405.651 538.185 405.651L552.354 397.382Z" fill="#2F2E41"/>
<path d="M535.663 100.801C547.486 100.801 557.071 91.2163 557.071 79.3932C557.071 67.5701 547.486 57.9856 535.663 57.9856C523.84 57.9856 514.255 67.5701 514.255 79.3932C514.255 91.2163 523.84 100.801 535.663 100.801Z" fill="#FFB8B8"/>
<path d="M523.269 91.7869L518.762 116.575L537.916 125.589L542.423 94.0409L523.269 91.7869Z" fill="#FFB8B8"/>
<path d="M521.016 208.965L544.677 225.866C544.677 225.866 554.817 251.781 562.704 247.274C570.591 242.767 553.69 220.233 553.69 220.233L534.536 201.078L521.016 208.965Z" fill="#FFB8B8"/>
<path d="M588.619 201.078L590.872 214.599C590.872 214.599 585.239 242.767 578.478 237.133C571.718 231.5 580.732 213.472 580.732 213.472L579.605 202.205L588.619 201.078Z" fill="#FFB8B8"/>
<path d="M535.663 118.828L533.41 109.814L519.889 103.054L515.382 108.688L500.735 113.195L517.636 203.332C517.636 203.332 575.098 206.712 576.225 197.698C577.352 188.685 564.958 163.897 564.958 163.897C564.958 163.897 568.338 151.503 567.211 144.743L562.704 117.701L544.677 112.068L540.56 107.087L536.79 113.195L535.663 118.828Z" fill="#D0CDE1"/>
<path d="M504.115 115.448L500.735 113.195C500.735 113.195 493.975 114.321 491.721 123.335C489.468 132.349 491.721 172.911 497.355 180.798C502.988 188.685 518.762 212.346 518.762 212.346L540.17 202.205L517.636 176.291L512.002 143.616L504.115 115.448Z" fill="#D0CDE1"/>
<path d="M553.69 119.955L562.704 117.701C562.704 117.701 568.338 119.955 570.591 127.842C572.845 135.729 585.239 175.164 584.112 178.544C582.985 181.924 594.252 204.459 594.252 204.459L578.478 205.585L569.465 181.924L560.451 158.263L553.69 119.955Z" fill="#D0CDE1"/>
<path d="M498.56 99.723C503.074 97.2438 505.175 91.6792 505.325 86.5308C505.475 81.3824 504.226 76.2871 504.128 71.1374C504.078 70.0839 504.167 69.0283 504.395 67.9984C504.77 66.72 505.353 65.5124 506.122 64.4245C511.993 55.4286 522.198 49.1006 532.948 49.001C534.501 48.9807 536.043 49.2642 537.487 49.8355C538.598 50.2806 538.962 50.2261 539.175 51.5907C541.721 50.7506 544.483 50.8385 546.97 51.8386C549.435 52.8405 551.733 54.2093 553.788 55.8987C555.009 56.8068 556.161 57.8043 557.235 58.883C562.916 64.7681 564.224 73.8383 562.578 81.8506C562.043 84.4555 564.61 86.9703 566.734 88.5703C568.858 90.1703 571.311 91.6395 572.354 94.0857C573.358 96.4388 572.807 99.1299 573.009 101.68C573.235 104.091 574.132 106.39 575.596 108.318C577.06 110.247 579.034 111.727 581.295 112.593C580.834 113.145 580.232 113.563 579.553 113.802C578.874 114.04 578.144 114.092 577.438 113.95C575.966 113.639 574.588 112.984 573.419 112.036C569.023 108.778 565.877 104.111 564.507 98.8127C563.883 101.65 564.125 104.577 564.148 107.483C564.093 110.725 564.691 113.945 565.904 116.952C567.138 119.974 569.399 122.463 572.288 123.982C569.502 125.346 566.431 124.357 564.07 122.345C561.807 120.196 560.172 117.472 559.34 114.465C557.756 109.664 557.114 104.603 557.448 99.5592C554.856 103.923 553.909 109.069 554.777 114.069C555.684 119.167 558.346 123.788 562.301 127.129C555.405 127.071 548.622 125.363 542.52 122.148C540.945 121.434 539.556 120.364 538.463 119.023C536.5 116.299 536.964 112.584 537.515 109.272C537.95 106.653 534.678 102.867 536.552 100.986C537.109 100.436 537.853 100.116 538.635 100.091C541.453 99.8799 544.186 99.0239 546.62 97.5889C549.055 96.1539 551.128 94.1783 552.677 91.8147C554.839 88.565 556.066 84.7842 556.226 80.8846C556.225 78.0212 555.605 75.1919 554.41 72.5901C553.214 69.9882 551.471 67.6753 549.299 65.8092C547.127 63.9431 544.578 62.568 541.826 61.7778C539.074 60.9876 536.183 60.8009 533.352 61.2306C530.521 61.6603 527.817 62.6962 525.423 64.2675C523.029 65.8387 521.003 67.9083 519.483 70.3348C517.962 72.7613 516.984 75.4874 516.614 78.3268C516.244 81.1662 516.492 84.0519 517.34 86.7868C518.016 88.9876 518.501 91.2428 518.788 93.5271C519.128 96.1778 519.667 98.799 520.402 101.368C521.82 106.306 524.223 111.344 528.668 113.919C527.114 114.585 525.444 114.939 523.753 114.96C518.175 115.575 512.309 115.439 507.261 112.989C502.212 110.54 498.2 105.323 498.56 99.723Z" fill="#2F2E41"/>
<path d="M510.731 77.868C526.749 71.4477 542.541 70.0782 557.921 77.868V64.9271C557.921 62.6917 557.033 60.5478 555.453 58.9672C553.872 57.3865 551.728 56.4985 549.493 56.4985H517.389C516.515 56.4985 515.649 56.6707 514.841 57.0054C514.033 57.34 513.299 57.8305 512.681 58.4488C512.063 59.0671 511.572 59.8011 511.237 60.609C510.903 61.4169 510.731 62.2827 510.731 63.1572V77.868Z" fill="#2F2E41"/>
<path d="M515.715 85.8815C517.019 85.8815 518.076 84.1902 518.076 82.1039C518.076 80.0176 517.019 78.3264 515.715 78.3264C514.411 78.3264 513.354 80.0176 513.354 82.1039C513.354 84.1902 514.411 85.8815 515.715 85.8815Z" fill="#FFB8B8"/>
<path d="M614 442H94V444H614V442Z" fill="#3F3D56"/>
<path d="M392 248.521C391.996 254.354 390.321 260.054 387.188 264.902C384.055 269.75 379.604 273.528 374.397 275.758C369.19 277.989 363.462 278.571 357.935 277.432C352.408 276.293 347.332 273.484 343.348 269.36C339.363 265.235 336.649 259.981 335.549 254.261C334.448 248.54 335.011 242.61 337.165 237.221C339.32 231.831 342.97 227.224 347.653 223.981C352.337 220.738 357.844 219.004 363.479 219C367.228 218.989 370.941 219.745 374.406 221.225C377.871 222.705 381.019 224.879 383.67 227.622C386.32 230.366 388.421 233.624 389.85 237.211C391.28 240.798 392.01 244.641 392 248.521V248.521Z" fill="#FFB8B8"/>
<path opacity="0.3" d="M392 248.521C391.996 254.354 390.321 260.054 387.188 264.902C384.055 269.75 379.604 273.528 374.397 275.758C369.19 277.989 363.462 278.571 357.935 277.432C352.408 276.293 347.332 273.484 343.348 269.36C339.363 265.235 336.649 259.981 335.549 254.261C334.448 248.54 335.011 242.61 337.165 237.221C339.32 231.831 342.97 227.224 347.653 223.981C352.337 220.738 357.844 219.004 363.479 219C367.228 218.989 370.941 219.745 374.406 221.225C377.871 222.705 381.019 224.879 383.67 227.622C386.32 230.366 388.421 233.624 389.85 237.211C391.28 240.798 392.01 244.641 392 248.521V248.521Z" fill="black"/>
<path d="M443.999 97.7986C444.053 107.537 442.121 117.177 438.329 126.085C436.687 129.919 434.718 133.594 432.446 137.064C427.738 144.129 422.088 150.466 415.667 155.885C414.565 156.844 413.356 157.841 411.738 159.132C409.712 160.701 407.455 162.343 404.86 164.114C400.278 167.191 395.869 170.536 391.653 174.134C389.154 176.156 386.987 178.587 385.237 181.33C383.051 185.297 381.949 192.973 381.949 204.155V206H334.029V197.365C334.029 190.611 334.189 184.928 334.491 179.983C334.709 175.502 335.16 171.036 335.842 166.605C336.311 162.708 337.443 158.929 339.184 155.442C342.33 149.999 349.919 142.6 362.361 132.82C362.895 132.414 363.428 131.99 363.979 131.565C364.495 131.196 364.992 130.809 365.507 130.403C369.818 127.225 373.786 123.575 377.345 119.516C378.385 118.252 379.347 116.921 380.225 115.531L380.456 115.162C383.242 110.038 384.608 104.214 384.402 98.3337C384.415 96.8461 384.32 95.3595 384.117 93.8868C383.565 88.1424 380.996 82.8096 376.901 78.9038C372.458 74.6758 366.729 72.1951 360.708 71.8921C359.944 71.8183 359.233 71.7999 358.504 71.7999C355.672 71.7835 352.848 72.1305 350.097 72.8332C344.941 74.1535 340.315 77.1227 336.873 81.321C335.049 83.5566 333.497 86.0169 332.252 88.6464C328.053 98.7028 325.367 109.369 324.289 120.273L324.111 122.21L279 109.737V89.0892C279.214 88.2589 279.444 87.4286 279.693 86.6167C282.573 76.2614 287.162 66.5033 293.255 57.7765C295.859 54.0733 298.793 50.6322 302.018 47.4988C302.782 46.7054 303.618 45.9304 304.453 45.1739C309.881 40.2819 315.912 36.1617 322.387 32.9219L322.956 32.6451C335.221 26.7604 348.602 23.8093 362.113 24.0095C363.517 24.0095 365.17 24.028 366.805 24.1203C380.231 24.4736 393.408 27.9612 405.358 34.3241C410.724 37.2079 415.751 40.7246 420.341 44.8047C433.219 55.7022 441.511 71.3706 443.465 88.4986C443.822 91.5848 444 94.6903 443.999 97.7986Z" fill="#FFB8B8"/>
<path opacity="0.3" d="M443.999 97.7986C444.053 107.537 442.121 117.177 438.329 126.085C436.687 129.919 434.718 133.594 432.446 137.064C427.738 144.129 422.088 150.466 415.667 155.885C414.565 156.844 413.356 157.841 411.738 159.132C409.712 160.701 407.455 162.343 404.86 164.114C400.278 167.191 395.869 170.536 391.653 174.134C389.154 176.156 386.987 178.587 385.237 181.33C383.051 185.297 381.949 192.973 381.949 204.155V206H334.029V197.365C334.029 190.611 334.189 184.928 334.491 179.983C334.709 175.502 335.16 171.036 335.842 166.605C336.311 162.708 337.443 158.929 339.184 155.442C342.33 149.999 349.919 142.6 362.361 132.82C362.895 132.414 363.428 131.99 363.979 131.565C364.495 131.196 364.992 130.809 365.507 130.403C369.818 127.225 373.786 123.575 377.345 119.516C378.385 118.252 379.347 116.921 380.225 115.531L380.456 115.162C383.242 110.038 384.608 104.214 384.402 98.3337C384.415 96.8461 384.32 95.3595 384.117 93.8868C383.565 88.1424 380.996 82.8096 376.901 78.9038C372.458 74.6758 366.729 72.1951 360.708 71.8921C359.944 71.8183 359.233 71.7999 358.504 71.7999C355.672 71.7835 352.848 72.1305 350.097 72.8332C344.941 74.1535 340.315 77.1227 336.873 81.321C335.049 83.5566 333.497 86.0169 332.252 88.6464C328.053 98.7028 325.367 109.369 324.289 120.273L324.111 122.21L279 109.737V89.0892C279.214 88.2589 279.444 87.4286 279.693 86.6167C282.573 76.2614 287.162 66.5033 293.255 57.7765C295.859 54.0733 298.793 50.6322 302.018 47.4988C302.782 46.7054 303.618 45.9304 304.453 45.1739C309.881 40.2819 315.912 36.1617 322.387 32.9219L322.956 32.6451C335.221 26.7604 348.602 23.8093 362.113 24.0095C363.517 24.0095 365.17 24.028 366.805 24.1203C380.231 24.4736 393.408 27.9612 405.358 34.3241C410.724 37.2079 415.751 40.7246 420.341 44.8047C433.219 55.7022 441.511 71.3706 443.465 88.4986C443.822 91.5848 444 94.6903 443.999 97.7986Z" fill="black"/>
<path d="M372 248.521C371.996 254.354 370.292 260.054 367.104 264.902C363.916 269.75 359.386 273.528 354.088 275.758C348.79 277.989 342.961 278.571 337.337 277.432C331.714 276.293 326.548 273.484 322.494 269.36C318.439 265.235 315.678 259.981 314.558 254.261C313.439 248.54 314.011 242.61 316.203 237.221C318.396 231.831 322.109 227.224 326.875 223.981C331.641 220.738 337.245 219.004 342.979 219C346.793 218.989 350.572 219.745 354.097 221.225C357.623 222.705 360.827 224.879 363.524 227.622C366.221 230.366 368.358 233.624 369.813 237.211C371.267 240.798 372.011 244.641 372 248.521Z" fill="#FFB8B8"/>
<path d="M424.999 97.7986C425.053 107.537 423.108 117.177 419.29 126.085C417.637 129.919 415.654 133.594 413.366 137.064C408.626 144.129 402.938 150.466 396.472 155.885C395.362 156.844 394.145 157.841 392.516 159.132C390.476 160.701 388.204 162.343 385.591 164.114C380.977 167.191 376.538 170.536 372.293 174.134C369.777 176.156 367.595 178.587 365.833 181.33C363.632 185.297 362.522 192.973 362.522 204.155V206H314.273V197.365C314.273 190.611 314.434 184.928 314.738 179.983C314.957 175.502 315.411 171.036 316.099 166.605C316.571 162.708 317.71 158.929 319.463 155.442C322.631 149.999 330.272 142.6 342.8 132.82C343.337 132.414 343.874 131.99 344.429 131.565C344.948 131.196 345.449 130.809 345.968 130.403C350.308 127.225 354.304 123.575 357.887 119.516C358.934 118.252 359.902 116.921 360.786 115.531L361.019 115.162C363.824 110.038 365.199 104.214 364.992 98.3337C365.005 96.8461 364.91 95.3595 364.706 93.8868C364.149 88.1424 361.563 82.8096 357.44 78.9038C352.966 74.6758 347.198 72.1951 341.136 71.8921C340.366 71.8183 339.651 71.7999 338.917 71.7999C336.064 71.7835 333.221 72.1305 330.452 72.8332C325.26 74.1535 320.602 77.1227 317.137 81.321C315.3 83.5566 313.737 86.0169 312.483 88.6464C309.262 95.2706 307.168 104.054 306.255 114.737L306.076 116.675L255 109.165L255.25 107.338C256.148 100.323 257.59 93.3936 259.564 86.6167C262.463 76.2614 267.083 66.5033 273.219 57.7765C275.841 54.0733 278.795 50.6322 282.041 47.4988C282.811 46.7054 283.652 45.9304 284.493 45.1739C289.959 40.2819 296.031 36.1617 302.551 32.9219L303.123 32.6451C315.473 26.7604 328.946 23.8093 342.55 24.0095C343.963 24.0095 345.628 24.028 347.274 24.1203C360.792 24.4736 374.06 27.9612 386.092 34.3241C391.495 37.2079 396.557 40.7246 401.178 44.8047C414.145 55.7022 422.494 71.3706 424.462 88.4986C424.821 91.5848 425 94.6903 424.999 97.7986V97.7986Z" fill="#FFB8B8"/>
</g>
<defs>
<clipPath id="clip0">
<rect width="887.5" height="444.01" fill="white"/>
</clipPath>
</defs>
</svg>
