<svg width="1167" height="806" viewBox="0 0 1167 806" fill="none" xmlns="http://www.w3.org/2000/svg">
<g clip-path="url(#clip0)">
<path opacity="0.1" d="M659.62 109.61C584.87 109.71 512.92 88.52 444.1 64.98C375.28 41.44 306.99 15.08 233.63 3.91001C186.45 -3.26999 132.8 -2.60999 95.92 23.46C60.42 48.54 50.14 90.05 45.18 128.4C41.45 157.25 39.73 187.53 53.7 213.92C63.4 232.24 80 247.34 91.7 264.8C132.54 325.54 107.98 403.13 68.29 465.28C49.68 494.44 27.88 522.39 13.81 553.22C-0.259969 584.05 -6.02997 619.01 8.32003 649.44C22.54 679.6 54.66 701.49 89.13 716.44C159.13 746.86 240.63 753.38 319.94 755.89C495.5 761.46 671.4 750.1 846.83 738.74C911.75 734.54 976.96 730.31 1040.54 718.14C1075.84 711.39 1112.19 701.37 1137.22 679.41C1168.99 651.53 1175.49 606.01 1152.37 573.29C1113.6 518.41 1011.37 508.06 983.57 448.68C968.24 415.99 981.46 378.5 1000.93 346.99C1042.69 279.38 1114.57 218.82 1115.78 143.2C1116.61 91.27 1079.23 40.61 1023.4 18.04C964.88 -5.59999 885.09 0.480007 844.09 44.54C801.93 89.93 725.62 109.54 659.62 109.61Z" fill="#F6BD60"/>
<path opacity="0.05" d="M948 116H162V461.62H948V116Z" fill="black"/>
<path d="M942 118.62H168V456.62H942V118.62Z" fill="#84A59D"/>
<path d="M291.13 205.69C275.901 205.69 261.014 210.206 248.351 218.667C235.689 227.128 225.819 239.153 219.991 253.223C214.163 267.293 212.639 282.775 215.61 297.712C218.581 312.648 225.914 326.369 236.683 337.137C247.452 347.906 261.172 355.239 276.108 358.21C291.045 361.182 306.527 359.657 320.597 353.829C334.667 348.001 346.692 338.131 355.153 325.469C363.614 312.806 368.13 297.919 368.13 282.69C368.13 272.578 366.138 262.565 362.269 253.223C358.399 243.881 352.727 235.393 345.577 228.243C338.427 221.093 329.939 215.421 320.597 211.551C311.255 207.682 301.242 205.69 291.13 205.69ZM304.94 284.54V321H277.72V284.54C273.953 281.689 271.177 277.726 269.784 273.212C268.39 268.698 268.449 263.86 269.953 259.382C271.457 254.903 274.33 251.01 278.165 248.252C282.001 245.494 286.606 244.01 291.33 244.01C296.054 244.01 300.659 245.494 304.495 248.252C308.331 251.01 311.203 254.903 312.707 259.382C314.211 263.86 314.27 268.698 312.877 273.212C311.483 277.726 308.707 281.689 304.94 284.54Z" fill="#666666"/>
<path opacity="0.05" d="M291.13 205.69C275.901 205.69 261.014 210.206 248.351 218.667C235.689 227.128 225.819 239.153 219.991 253.223C214.163 267.293 212.639 282.775 215.61 297.712C218.581 312.648 225.914 326.369 236.683 337.137C247.452 347.906 261.172 355.239 276.108 358.21C291.045 361.182 306.527 359.657 320.597 353.829C334.667 348.001 346.692 338.131 355.153 325.469C363.614 312.806 368.13 297.919 368.13 282.69C368.13 272.578 366.138 262.565 362.269 253.223C358.399 243.881 352.727 235.393 345.577 228.243C338.427 221.093 329.939 215.421 320.597 211.551C311.255 207.682 301.242 205.69 291.13 205.69ZM304.94 284.54V321H277.72V284.54C273.953 281.689 271.177 277.726 269.784 273.212C268.39 268.698 268.449 263.86 269.953 259.382C271.457 254.903 274.33 251.01 278.165 248.252C282.001 245.494 286.606 244.01 291.33 244.01C296.054 244.01 300.659 245.494 304.495 248.252C308.331 251.01 311.203 254.903 312.707 259.382C314.211 263.86 314.27 268.698 312.877 273.212C311.483 277.726 308.707 281.689 304.94 284.54Z" fill="#666666"/>
<path d="M291.13 183.69C271.55 183.69 252.409 189.496 236.129 200.375C219.848 211.253 207.159 226.714 199.666 244.804C192.173 262.894 190.212 282.8 194.032 302.004C197.852 321.208 207.281 338.848 221.126 352.694C234.972 366.539 252.612 375.968 271.816 379.788C291.02 383.608 310.926 381.647 329.016 374.154C347.106 366.661 362.567 353.972 373.446 337.691C384.324 321.411 390.13 302.27 390.13 282.69C390.13 256.434 379.7 231.253 361.134 212.686C342.568 194.12 317.386 183.69 291.13 183.69ZM308.88 285.07V331.94H273.88V285.07C269.035 281.404 265.464 276.308 263.671 270.503C261.878 264.697 261.954 258.475 263.888 252.715C265.822 246.955 269.516 241.948 274.449 238.401C279.382 234.854 285.304 232.945 291.38 232.945C297.456 232.945 303.378 234.854 308.311 238.401C313.244 241.948 316.938 246.955 318.872 252.715C320.806 258.475 320.882 264.697 319.089 270.503C317.296 276.308 313.725 281.404 308.88 285.07Z" fill="#FFC0AD"/>
<path d="M839.335 251.036H770.335V285.036H839.335V251.036Z" fill="#F6BD60"/>
<path d="M921.825 327.176C921.796 325.967 921.646 324.764 921.375 323.586C920.475 320.206 918.445 316.116 915.105 315.096C911.656 314.04 908.326 312.633 905.165 310.896C904.565 300.176 907.025 289.206 904.345 278.816C903.345 275.016 901.695 271.376 901.255 267.486C900.705 262.646 902.025 257.486 900.095 253.026C898.575 249.506 895.235 247.026 891.645 245.726C888.055 244.426 884.185 244.076 880.375 243.726C875.575 243.336 860.035 241.496 854.615 245.786C854.241 246.076 853.905 246.412 853.615 246.786C853.495 246.951 853.388 247.125 853.295 247.306L853.245 247.386C853.136 247.594 853.046 247.812 852.975 248.036C852.899 248.281 852.842 248.532 852.805 248.786C852.805 248.866 852.805 248.946 852.805 249.026C852.805 249.106 852.805 249.376 852.805 249.556V249.826C852.805 250.006 852.805 250.186 852.805 250.376C852.805 250.566 852.805 250.516 852.805 250.586C852.875 251.486 853.005 252.386 853.005 253.276C853.015 253.719 852.975 254.162 852.885 254.596C852.552 255.775 851.988 256.877 851.225 257.836L851.045 258.096C850.935 258.256 850.825 258.406 850.725 258.566C850.625 258.726 850.545 258.846 850.465 258.986C850.385 259.126 850.305 259.216 850.235 259.346C850.138 259.511 850.051 259.681 849.975 259.856C849.975 259.956 849.865 260.046 849.825 260.146C849.7 260.416 849.599 260.698 849.525 260.986C849.291 261.855 849.27 262.767 849.465 263.646C849.734 264.768 850.198 265.834 850.835 266.796C851.085 267.206 851.355 267.606 851.635 268.006L852.335 268.956C852.204 269.884 852.134 270.819 852.125 271.756C852.125 274.887 852.837 277.978 854.205 280.794C855.573 283.611 857.563 286.08 860.025 288.016C860.421 292.239 860.377 296.492 859.895 300.706C859.805 301.586 859.695 302.476 859.575 303.356C859.455 304.236 859.365 304.816 859.245 305.546C857.781 305.756 856.29 305.643 854.875 305.216C854.222 304.925 853.554 304.668 852.875 304.446C849.965 303.716 846.995 306.616 844.115 305.736C844.115 305.876 844.035 306.006 843.985 306.136C843.384 305.762 842.693 305.558 841.985 305.546C840.275 305.466 838.885 304.226 837.645 303.056L833.835 299.466C833.586 299.246 833.365 298.998 833.175 298.726C832.97 298.337 832.815 297.924 832.715 297.496C832.075 295.426 830.525 293.776 829.025 292.206C828.741 291.848 828.364 291.575 827.935 291.416C827.769 291.391 827.601 291.391 827.435 291.416C827.333 291.276 827.223 291.143 827.105 291.016C826.846 290.719 826.569 290.438 826.275 290.176C824.455 288.496 824.275 287.056 822.695 285.176C821.317 283.383 820.067 281.495 818.955 279.526C818.825 278.476 818.645 277.396 818.425 276.306C817.921 273.811 817.188 271.367 816.235 269.006L814.235 264.576L814.005 264.806C812.555 262.646 811.005 261.466 809.615 261.746C807.285 262.226 806.135 266.746 806.505 272.656L807.305 278.656C807.305 278.806 807.375 278.956 807.415 279.106C807.271 279.817 807.197 280.541 807.195 281.266C807.195 282.106 807.975 282.726 808.385 283.476C809.041 284.492 809.388 285.676 809.385 286.886C809.335 287.316 809.205 287.726 809.185 288.146C809.239 289.085 809.566 289.989 810.125 290.746L815.125 299.146L816.125 300.906L816.185 300.986C816.5 301.6 816.96 302.129 817.525 302.526C817.721 304.629 818.279 306.683 819.175 308.596C819.345 308.976 819.535 309.336 819.735 309.696C821.079 311.906 822.662 313.961 824.455 315.826L826.835 318.496C829.185 321.116 831.535 323.746 834.085 326.166C834.998 327.137 836.1 327.91 837.325 328.436C837.925 328.676 838.577 328.753 839.216 328.66C839.855 328.567 840.458 328.307 840.965 327.906C840.965 329.146 840.965 330.386 840.965 331.626C841.336 331.649 841.695 331.77 842.003 331.978C842.312 332.186 842.559 332.472 842.72 332.807C842.881 333.143 842.95 333.515 842.919 333.885C842.888 334.256 842.759 334.612 842.545 334.916C840.445 340.306 838.325 345.746 835.145 350.576C837.389 351.905 839.47 353.492 841.345 355.306C842.561 356.654 843.643 358.118 844.575 359.676C844.665 360.416 844.735 361.146 844.775 361.876C845.515 373.796 840.905 385.626 836.775 396.986C835.585 400.206 834.285 403.576 834.385 406.926C833.601 407.409 832.853 407.947 832.145 408.536C832.965 410.676 832.645 412.586 832.555 414.876C832.525 416.249 832.244 417.605 831.725 418.876C831.29 419.757 830.809 420.615 830.285 421.446C827.695 426.016 827.125 431.446 826.605 436.666C826.295 439.816 827.515 443.666 826.085 446.486C823.615 451.326 821.425 456.486 821.085 461.866C821.073 463.077 820.919 464.282 820.625 465.456C820.315 466.456 819.765 467.306 819.485 468.286C819.197 469.599 819.129 470.951 819.285 472.286C819.475 477.079 818.763 481.866 817.185 486.396C815.935 489.966 814.555 493.786 815.535 497.456C813.122 499.99 811.632 503.262 811.305 506.746C811.279 507.637 811.172 508.524 810.985 509.396C810.679 510.287 810.277 511.142 809.785 511.946C807.772 515.612 806.829 519.77 807.065 523.946C804.065 528.016 802.565 533.036 801.675 538.026C800.785 543.016 800.395 548.096 799.255 553.026C797.735 559.546 794.985 566.136 794.445 572.816C791.205 574.886 789.805 578.896 789.185 582.686C788.565 586.476 788.465 590.456 786.875 593.956C786.055 595.776 784.875 597.406 784.095 599.266C783.548 600.747 783.146 602.277 782.895 603.836C782.415 606.276 781.995 608.996 782.585 611.336C781.737 612.234 780.747 612.988 779.655 613.566C779.815 612.946 779.945 612.326 780.055 611.696C777.475 614.036 772.795 613.216 770.735 616.026C770.116 616.932 769.875 618.043 770.062 619.124C770.248 620.204 770.848 621.17 771.735 621.816C772.379 622.209 773.076 622.508 773.805 622.706C778.805 624.306 783.945 625.916 789.085 625.066C789.693 625 790.281 624.813 790.815 624.516C791.483 624.024 792.033 623.388 792.425 622.656C793.195 621.436 793.965 620.216 794.725 618.996C796.567 619.546 798.44 619.983 800.335 620.306C800.525 621.906 800.665 623.506 800.735 625.106C801.735 625.306 803.075 625.366 803.545 624.436C803.687 624.084 803.746 623.704 803.715 623.326C803.715 622.616 803.815 621.676 803.875 620.716H804.075C807.126 620.839 810.161 620.225 812.925 618.926C811.855 610.066 815.385 601.406 818.445 593.026C821.675 584.206 824.445 575.226 827.235 566.246C829.235 559.926 831.445 553.806 833.405 547.476C835.871 539.476 838.348 531.476 840.835 523.476C841.915 519.956 843.005 516.476 844.245 512.976C846.855 505.894 849.953 499.001 853.515 492.346C854.515 490.456 855.515 488.586 856.335 486.626C857.335 484.236 858.045 481.736 858.845 479.266C860.588 474.198 862.687 469.259 865.125 464.486C865.195 464.356 865.245 464.236 865.315 464.116C866.125 467.426 866.935 470.786 867.475 474.116C868.206 478.199 868.263 482.374 867.645 486.476C867.165 489.266 866.255 492.026 866.365 494.856C866.515 498.766 868.605 502.316 869.635 506.086C870.299 508.907 870.674 511.789 870.755 514.686C871.035 519.186 873.475 524.236 871.755 528.406C866.405 541.616 868.995 556.536 865.945 570.406C864.375 577.526 859.565 584.216 859.945 591.496C860.211 596.663 860.665 601.816 861.305 606.956C861.459 608.578 861.881 610.163 862.555 611.646C862.954 612.426 863.412 613.175 863.925 613.886C863.485 614.056 863.115 614.506 862.795 615.456C861.975 617.956 862.795 621.056 865.015 622.456C865.919 622.94 866.895 623.277 867.905 623.456C869.264 623.842 870.671 624.038 872.085 624.036C872.525 624.012 872.962 623.959 873.395 623.876C874.94 624.525 876.519 625.093 878.125 625.576C878.125 625.986 878.205 626.396 878.255 626.806C878.258 627.02 878.305 627.232 878.395 627.426C878.484 627.621 878.614 627.795 878.775 627.936C879.024 628.052 879.3 628.101 879.575 628.076H885.005C885.005 627.626 885.005 627.166 885.005 626.716C885.626 626.781 886.254 626.715 886.849 626.522C887.443 626.329 887.99 626.013 888.455 625.596C888.936 624.984 889.277 624.274 889.455 623.516C890.935 618.496 892.405 613.473 893.865 608.446C895.615 602.89 896.344 597.062 896.015 591.246C894.085 572.816 898.325 554.326 896.945 535.846C896.114 524.739 896.685 513.571 898.645 502.606C899.095 500.126 899.645 497.606 899.845 495.136C900.285 490.476 899.745 485.766 900.075 481.136C900.185 479.516 900.405 477.906 900.605 476.296C901.975 466.303 902.693 456.232 902.755 446.146C902.724 442.804 902.517 439.466 902.135 436.146C903.177 435.88 904.124 435.326 904.865 434.546C905.755 433.386 905.525 431.756 905.515 430.276C905.515 426.736 907.005 423.396 908.205 420.056C909.745 415.449 911.007 410.754 911.985 405.996C913.018 402.162 913.582 398.216 913.665 394.246C913.665 393.846 913.645 393.446 913.605 393.046C913.982 392.785 914.296 392.443 914.525 392.046C914.786 391.46 914.948 390.835 915.005 390.196C915.365 387.646 915.735 385.086 916.095 382.526C916.361 380.693 916.625 378.863 916.885 377.036L920.065 354.846C920.335 352.916 920.615 350.996 920.885 349.076L921.715 343.336C921.805 342.656 921.905 341.976 921.975 341.336C924.415 337.256 922.085 331.816 921.825 327.176ZM895.295 410.256C894.115 407.456 893.015 404.586 893.295 401.566H893.185C893.448 400.637 893.402 399.647 893.055 398.746C892.745 398.016 892.205 397.396 891.875 396.666C891.52 395.775 891.337 394.825 891.335 393.866C891.086 387.784 891.567 381.694 892.765 375.726C892.895 375.026 893.035 374.316 893.165 373.616C893.584 373.374 893.968 373.074 894.305 372.726C894.831 372.126 895.265 371.452 895.595 370.726C896.725 368.456 897.755 366.146 898.705 363.796C899.015 363.036 899.465 362.156 900.235 361.966C900.075 367.816 900.675 373.786 898.295 379.066C897.843 379.917 897.506 380.825 897.295 381.766C897.075 383.256 897.695 384.766 897.475 386.246C897.365 387.016 897.035 387.726 896.905 388.486C896.806 388.859 896.808 389.252 896.91 389.624C897.011 389.996 897.21 390.335 897.485 390.606C897.617 390.699 897.762 390.773 897.915 390.826C897.855 391.226 897.805 391.636 897.765 392.026C897.685 392.846 897.645 393.616 897.595 394.096C897.365 396.542 897.275 399 897.325 401.456C897.325 404.106 897.425 406.756 897.385 409.456C897.422 410.231 897.292 411.005 897.005 411.726C896.807 412.098 896.55 412.435 896.245 412.726C895.955 411.826 895.635 411.036 895.295 410.256Z" fill="url(#paint0_linear)"/>
<path d="M816.357 294.226C819.409 293.6 820.447 286.089 818.676 277.448C816.906 268.808 812.997 262.31 809.946 262.936C806.894 263.561 805.856 271.072 807.626 279.713C809.397 288.353 813.306 294.851 816.357 294.226Z" fill="#FBBEBE"/>
<path d="M862.955 615.646C862.135 618.126 862.955 621.226 865.175 622.576C866.074 623.055 867.042 623.393 868.045 623.576C869.402 623.959 870.805 624.151 872.215 624.146C873.945 624.066 875.605 623.386 877.335 623.146C877.534 623.096 877.746 623.124 877.925 623.226C878.011 623.319 878.076 623.43 878.114 623.551C878.152 623.672 878.163 623.8 878.145 623.926C878.163 624.909 878.237 625.891 878.365 626.866C878.366 627.08 878.413 627.292 878.503 627.487C878.593 627.682 878.723 627.855 878.885 627.996C879.134 628.112 879.41 628.161 879.685 628.136H885.105C885.228 623.374 884.706 618.618 883.555 613.996C883.48 613.642 883.344 613.304 883.155 612.996C882.695 612.492 882.091 612.143 881.425 611.996C880.1 611.445 878.668 611.195 877.235 611.266C875.485 611.496 874.025 612.626 872.535 613.566C871.045 614.506 869.015 615.336 867.205 614.856C865.395 614.376 863.885 612.866 862.955 615.646Z" fill="#3F3D56"/>
<path d="M783.375 611.256C781.851 612.888 779.982 614.158 777.905 614.976L776.985 615.416C776.857 615.464 776.749 615.552 776.675 615.666C776.657 615.744 776.657 615.824 776.674 615.902C776.692 615.98 776.726 616.053 776.775 616.116C777.54 617.3 778.671 618.201 779.996 618.683C781.321 619.165 782.768 619.201 784.115 618.786C784.71 618.637 785.262 618.349 785.725 617.946C786.487 617.042 786.924 615.908 786.965 614.726C787.267 613.507 787.215 612.227 786.815 611.036C785.425 607.906 784.915 609.326 783.375 611.256Z" fill="#FBBEBE"/>
<path d="M804.155 623.576C804.186 623.954 804.127 624.334 803.985 624.686C803.515 625.606 802.205 625.556 801.185 625.356C801.03 621.963 800.619 618.587 799.955 615.256C798.015 615.166 796.615 617.006 795.575 618.656L792.895 622.906C792.507 623.638 791.96 624.273 791.295 624.766C790.759 625.059 790.172 625.246 789.565 625.316C784.445 626.166 779.275 624.556 774.335 622.956C773.607 622.761 772.91 622.465 772.265 622.076C771.383 621.429 770.787 620.465 770.6 619.388C770.414 618.31 770.652 617.202 771.265 616.296C773.335 613.496 777.985 614.296 780.565 611.976C780.296 613.608 779.853 615.207 779.245 616.746C782.695 616.226 785.015 613.066 787.795 610.956C788.493 610.364 789.334 609.964 790.235 609.796C790.909 609.739 791.587 609.811 792.235 610.006C795.44 610.813 798.439 612.289 801.035 614.336C802.085 615.166 803.725 616.336 804.185 617.616C804.675 619.146 804.155 621.946 804.155 623.576Z" fill="#3F3D56"/>
<path d="M872.945 293.636C884.355 293.636 893.605 284.386 893.605 272.976C893.605 261.566 884.355 252.316 872.945 252.316C861.535 252.316 852.285 261.566 852.285 272.976C852.285 284.386 861.535 293.636 872.945 293.636Z" fill="#FBBEBE"/>
<path d="M913.645 394.956C913.561 398.906 913.001 402.831 911.975 406.646C910.997 411.384 909.734 416.059 908.195 420.646C907.005 423.976 905.515 427.316 905.525 430.846C905.525 432.316 905.765 433.946 904.865 435.106C904.063 435.92 903.053 436.498 901.945 436.776C901.392 436.923 900.881 437.197 900.454 437.578C900.026 437.958 899.695 438.434 899.485 438.966C898.546 437.563 897.843 436.016 897.405 434.386C895.611 428.893 893.945 423.369 892.405 417.816C892.264 417.496 892.203 417.147 892.227 416.799C892.252 416.45 892.361 416.113 892.545 415.816C892.799 415.595 893.095 415.429 893.415 415.326C894.44 414.908 895.379 414.305 896.185 413.546C896.563 413.21 896.875 412.807 897.105 412.356C897.395 411.639 897.528 410.869 897.495 410.096C897.495 407.446 897.495 404.806 897.425 402.156C897.383 399.709 897.476 397.262 897.705 394.826C897.705 394.346 897.795 393.576 897.875 392.756C898.025 391.186 898.325 389.366 899.175 388.756C900.445 387.906 904.245 389.046 905.685 389.246C908.165 389.586 910.685 389.986 913.105 390.456C913.456 391.93 913.638 393.44 913.645 394.956Z" fill="#3F3D56"/>
<path d="M830.225 296.106C829.425 297.706 827.505 298.476 826.025 299.486L820.955 302.966C820.616 303.271 820.219 303.505 819.788 303.653C819.356 303.8 818.9 303.859 818.445 303.826C818.032 303.674 817.654 303.44 817.333 303.14C817.012 302.839 816.754 302.478 816.575 302.076C816.578 302.049 816.578 302.023 816.575 301.996L815.525 300.236L810.525 291.856C809.969 291.106 809.646 290.208 809.595 289.276C809.595 288.846 809.745 288.446 809.785 288.016C809.798 286.808 809.45 285.624 808.785 284.616C808.385 283.866 807.585 283.246 807.605 282.406C807.566 281.302 807.757 280.202 808.165 279.176C808.689 278.226 809.442 277.422 810.355 276.836C810.825 276.496 811.305 276.176 811.805 275.836C812.07 275.655 812.364 275.519 812.675 275.436C813.505 275.266 814.325 275.956 815.165 275.986C818.775 278.406 820.165 282.986 823.005 286.286C824.605 288.166 824.765 289.606 826.575 291.286C826.865 291.546 827.145 291.826 827.415 292.116C827.773 292.506 828.075 292.944 828.315 293.416C828.645 294.276 830.635 295.286 830.225 296.106Z" fill="#3F3D56"/>
<path d="M865.685 293.646C867.175 296.796 868.335 300.256 867.905 303.716C867.817 304.653 867.519 305.559 867.035 306.366C865.595 308.576 862.575 308.976 859.945 309.106C859.391 309.059 858.833 309.124 858.304 309.296C857.775 309.467 857.286 309.743 856.865 310.106C856.513 310.617 856.341 311.23 856.376 311.848C856.41 312.467 856.649 313.057 857.055 313.526C857.9 314.428 858.949 315.114 860.115 315.526C864.275 317.356 868.765 318.866 873.285 318.446C875.385 318.246 877.425 317.636 879.515 317.326C881.793 317.079 884.083 316.952 886.375 316.946C889.095 316.846 891.805 316.576 894.515 316.306L901.695 315.596C902.087 315.602 902.468 315.463 902.765 315.206C903.295 314.586 902.615 313.676 901.955 313.206C898.145 310.386 893.295 308.446 891.125 304.206C890.125 302.206 889.815 299.826 889.075 297.666C888.335 295.506 887.155 293.556 886.695 291.356C886.45 289.426 886.339 287.481 886.365 285.536C886.39 283.574 885.676 281.675 884.365 280.216C882.935 278.886 880.865 278.546 878.925 278.466C874.145 278.256 869.055 279.396 865.665 282.766C864.755 283.676 863.975 284.766 863.035 285.586C862.095 286.406 860.815 286.646 861.435 287.726C862.055 288.806 863.275 289.476 863.935 290.426C864.603 291.451 865.188 292.528 865.685 293.646Z" fill="#FBBEBE"/>
<path d="M906.415 322.736C905.154 330.436 903.103 337.986 900.295 345.266C898.883 348.553 897.681 351.927 896.695 355.366C895.925 358.466 896.075 361.786 895.365 364.896C894.485 368.766 893.605 372.646 892.895 376.546C891.704 382.501 891.227 388.578 891.475 394.646C891.477 395.602 891.66 396.548 892.015 397.436C892.345 398.156 892.875 398.776 893.185 399.516C893.417 400.166 893.512 400.857 893.463 401.545C893.415 402.234 893.225 402.905 892.905 403.516C892.392 404.661 891.696 405.714 890.845 406.636C881.525 409.416 871.555 408.506 861.845 409.096C852.895 409.636 843.845 411.476 835.025 409.946C834.025 405.946 835.695 401.756 837.125 397.856C841.275 386.526 845.865 374.726 845.125 362.856C845.047 361.471 844.89 360.093 844.655 358.726C843.205 350.316 844.785 341.606 847.315 333.456C848.885 328.376 848.815 322.966 848.455 317.676C848.277 315.958 848.253 314.228 848.385 312.506C848.53 310.748 849.183 309.069 850.265 307.676C850.265 307.606 850.355 307.536 850.405 307.466C850.455 307.396 850.845 307.406 851.155 307.466C851.234 307.5 851.319 307.517 851.405 307.517C851.491 307.517 851.576 307.5 851.655 307.466L851.765 307.396C851.807 307.366 851.858 307.35 851.91 307.35C851.962 307.35 852.012 307.366 852.055 307.396C852.285 307.536 852.415 308.016 852.915 308.106C853.654 308.218 854.398 308.288 855.145 308.316C856.043 308.343 856.935 308.47 857.805 308.696H857.925C859.225 308.915 860.56 308.802 861.805 308.366C862.633 308.159 863.433 307.85 864.185 307.446C864.405 307.206 865.785 306.986 866.065 306.816C866.975 306.266 866.775 303.686 866.965 302.626C867.07 301.563 867.322 300.52 867.715 299.526C868.17 298.793 868.799 298.182 869.545 297.748C870.291 297.314 871.132 297.07 871.995 297.036C873.717 296.995 875.438 297.149 877.125 297.496C880.855 298.026 884.675 297.936 888.335 298.796C890.175 299.226 892.185 299.876 893.875 299.036C894.335 299.146 894.405 299.546 894.405 300.036C894.362 300.502 894.268 300.961 894.125 301.406C893.485 304.166 895.655 306.706 897.655 308.706C898.5 309.649 899.497 310.443 900.605 311.056C901.605 311.516 902.605 311.706 903.605 312.206C904.415 312.638 905.103 313.268 905.605 314.036C906.181 314.917 906.569 315.908 906.745 316.946C906.959 318.881 906.848 320.838 906.415 322.736Z" fill="#3F3D56"/>
<path opacity="0.1" d="M906.415 322.736C905.154 330.436 903.103 337.986 900.295 345.266C898.883 348.553 897.681 351.927 896.695 355.366C895.925 358.466 896.075 361.786 895.365 364.896C894.485 368.766 893.605 372.646 892.895 376.546C892.685 376.666 892.465 376.776 892.245 376.876C891.001 377.47 889.682 377.894 888.325 378.136C885.887 378.431 883.418 378.35 881.005 377.896L866.735 375.986C861.035 375.216 854.965 374.286 850.735 370.426C848.385 368.306 846.845 365.506 845.155 362.806C845.077 361.421 844.92 360.043 844.685 358.676C843.235 350.266 844.815 341.556 847.345 333.406C848.915 328.326 848.845 322.916 848.485 317.626C848.307 315.908 848.283 314.178 848.415 312.456C848.559 310.698 849.213 309.019 850.295 307.626C850.587 307.54 850.884 307.474 851.185 307.426C851.386 307.385 851.59 307.359 851.795 307.346H852.085C852.422 307.347 852.757 307.388 853.085 307.466C853.766 307.683 854.434 307.94 855.085 308.236H855.205C856.062 308.518 856.963 308.647 857.865 308.616C859.185 308.616 860.545 308.406 861.865 308.316C863.495 308.061 865.164 308.361 866.605 309.166C867.534 309.913 868.416 310.718 869.245 311.576C870.245 312.362 871.371 312.974 872.575 313.386C881.183 316.672 890.733 316.471 899.195 312.826C900.008 312.364 900.93 312.129 901.865 312.146C902.555 312.281 903.21 312.561 903.785 312.966C904.385 313.316 904.975 313.656 905.585 313.966C906.161 314.847 906.549 315.838 906.725 316.876C906.954 318.833 906.849 320.814 906.415 322.736Z" fill="black"/>
<path d="M915.125 316.116C911.143 314.9 907.317 313.222 903.725 311.116C903.148 310.713 902.494 310.434 901.805 310.296C900.867 310.285 899.943 310.519 899.125 310.976C890.666 314.62 881.119 314.821 872.515 311.536C871.313 311.12 870.188 310.508 869.185 309.726C868.354 308.871 867.472 308.066 866.545 307.316C863.255 305.186 858.705 307.686 855.025 306.316C854.372 306.024 853.704 305.767 853.025 305.546C850.115 304.816 847.155 307.716 844.295 306.836C843.231 309.728 842.444 312.715 841.945 315.756C841.538 319.248 841.321 322.76 841.295 326.276C841.295 328.386 841.195 330.496 841.295 332.606C841.647 332.664 841.984 332.794 842.283 332.988C842.583 333.183 842.839 333.437 843.035 333.736C843.166 334.084 843.22 334.457 843.192 334.829C843.165 335.2 843.056 335.561 842.875 335.886C840.785 341.256 838.665 346.686 835.495 351.496C837.729 352.827 839.803 354.411 841.675 356.216C845.175 359.916 846.895 365.106 850.675 368.526C854.935 372.376 861.005 373.316 866.675 374.076L880.945 375.986C883.362 376.438 885.833 376.523 888.275 376.236C889.629 375.989 890.944 375.562 892.185 374.966C892.995 374.627 893.735 374.139 894.365 373.526C894.892 372.927 895.327 372.253 895.655 371.526C896.785 369.266 897.815 366.956 898.765 364.616C899.095 363.786 899.595 362.816 900.495 362.746C905.795 357.966 910.795 353.066 916.095 348.286C918.225 346.521 920.135 344.506 921.785 342.286C924.415 338.396 922.025 332.886 921.785 328.186C921.756 326.984 921.605 325.788 921.335 324.616C920.475 321.206 918.455 317.126 915.125 316.116Z" fill="#F6BD60"/>
<path opacity="0.1" d="M830.225 296.106C829.425 297.706 827.505 298.476 826.025 299.486L820.955 302.966C820.616 303.271 820.219 303.505 819.788 303.653C819.356 303.8 818.9 303.859 818.445 303.826C818.032 303.674 817.654 303.44 817.333 303.14C817.012 302.839 816.754 302.478 816.575 302.076C816.575 301.846 816.575 301.596 816.575 301.356C816.536 300.547 816.645 299.737 816.895 298.966C817.391 297.835 818.161 296.845 819.135 296.086C821.017 294.303 823.257 292.94 825.705 292.086C826.086 291.938 826.501 291.896 826.905 291.966C827.06 292.007 827.209 292.071 827.345 292.156C827.703 292.546 828.005 292.984 828.245 293.456C828.645 294.276 830.635 295.286 830.225 296.106Z" fill="black"/>
<path d="M842.165 306.646C840.465 306.566 839.075 305.336 837.835 304.166L834.045 300.646C833.791 300.432 833.569 300.182 833.385 299.906C833.18 299.517 833.025 299.104 832.925 298.676C832.121 296.656 830.862 294.849 829.245 293.396C828.963 293.038 828.585 292.767 828.155 292.616C827.748 292.541 827.329 292.583 826.945 292.736C824.496 293.589 822.257 294.952 820.375 296.736C819.402 297.496 818.632 298.486 818.135 299.616C817.883 300.386 817.775 301.196 817.815 302.006C817.838 304.648 818.432 307.254 819.555 309.646C819.725 310.016 819.915 310.386 820.115 310.746C821.449 312.951 823.026 315.001 824.815 316.856L827.195 319.516C829.535 322.136 831.875 324.756 834.415 327.166C835.325 328.137 836.429 328.907 837.655 329.426C838.27 329.677 838.943 329.754 839.599 329.648C840.255 329.542 840.87 329.258 841.375 328.826C841.854 328.271 842.215 327.625 842.435 326.926C843.975 322.926 845.435 318.766 845.525 314.456C845.546 312.73 845.473 311.004 845.305 309.286C845.155 307.466 843.865 306.756 842.165 306.646Z" fill="#F6BD60"/>
<path d="M902.765 446.646C902.707 456.705 901.992 466.75 900.625 476.716C900.425 478.326 900.205 479.936 900.095 481.546C899.765 486.216 900.305 490.906 899.865 495.546C899.635 498.056 899.115 500.546 898.675 502.996C896.721 513.931 896.149 525.068 896.975 536.146C898.355 554.576 894.125 573.016 896.045 591.396C896.278 594.97 896.079 598.559 895.455 602.086C895.097 604.274 894.579 606.434 893.905 608.546C892.445 613.553 890.978 618.553 889.505 623.546C889.332 624.305 888.99 625.016 888.505 625.626C887.995 626.067 887.396 626.394 886.75 626.586C886.103 626.777 885.423 626.828 884.755 626.736C878.985 626.556 873.555 624.066 868.315 621.636C867.712 621.398 867.154 621.06 866.665 620.636C865.575 619.506 865.665 617.726 865.185 616.236C864.705 614.746 863.405 613.346 862.665 611.816C862.056 610.369 861.688 608.832 861.575 607.266C860.908 602.146 860.455 597.006 860.215 591.846C859.835 584.586 864.635 577.906 866.215 570.846C869.215 556.966 866.675 542.086 872.005 528.916C873.685 524.756 871.245 519.716 871.005 515.236C870.918 512.346 870.543 509.471 869.885 506.656C868.885 502.896 866.775 499.356 866.625 495.456C866.515 492.636 867.425 489.886 867.895 487.106C868.518 483.015 868.461 478.848 867.725 474.776C867.195 471.416 866.385 468.056 865.575 464.776L865.395 465.146C862.958 469.908 860.863 474.837 859.125 479.896C858.325 482.346 857.625 484.846 856.625 487.226C855.805 489.226 854.795 491.056 853.805 492.936C850.254 499.566 847.163 506.432 844.555 513.486C843.315 516.946 842.225 520.486 841.145 523.956L833.735 547.956C831.735 554.266 829.545 560.366 827.585 566.666C824.815 575.666 822.045 584.586 818.825 593.386C815.825 601.736 812.255 610.386 813.325 619.206C810.568 620.502 807.539 621.116 804.495 620.996C799.341 620.54 794.285 619.313 789.495 617.356C787.585 616.646 785.605 615.846 784.315 614.276C782.095 611.566 782.645 607.596 783.315 604.146C783.567 602.591 783.969 601.064 784.515 599.586C785.275 597.746 786.515 596.116 787.295 594.296C788.865 590.806 788.965 586.856 789.585 583.066C790.205 579.276 791.585 575.276 794.825 573.216C795.375 566.556 798.115 559.986 799.625 553.476C800.765 548.546 801.145 543.476 802.045 538.476C802.945 533.476 804.395 528.476 807.415 524.426C807.177 520.25 808.119 516.091 810.135 512.426C810.622 511.621 811.021 510.766 811.325 509.876C811.511 509.007 811.618 508.124 811.645 507.236C811.976 503.761 813.461 500.497 815.865 497.966C814.865 494.316 816.255 490.506 817.505 486.966C819.079 482.449 819.792 477.676 819.605 472.896C819.45 471.561 819.514 470.21 819.795 468.896C820.075 467.896 820.625 467.046 820.945 466.086C821.23 464.91 821.381 463.706 821.395 462.496C821.785 457.086 823.975 451.986 826.395 447.156C827.835 444.336 826.615 440.506 826.915 437.366C827.435 432.146 828.005 426.746 830.595 422.196C831.075 421.336 831.595 420.516 832.025 419.626C832.546 418.355 832.827 416.999 832.855 415.626C832.945 413.336 833.265 411.436 832.445 409.306C837.795 404.856 845.095 403.606 852.055 403.306C859.015 403.006 866.055 403.636 872.865 402.156C874.865 401.706 876.865 401.086 878.975 400.786C883.765 400.086 888.625 401.176 893.355 402.256C893.025 405.256 894.125 408.136 895.355 410.926C900.157 422.227 902.675 434.367 902.765 446.646Z" fill="#33313F"/>
<path opacity="0.1" d="M879.215 448.936L867.725 474.776C867.195 471.416 866.385 468.056 865.575 464.776L865.395 465.146V464.606L871.655 450.836L879.215 448.936Z" fill="black"/>
<path opacity="0.1" d="M913.645 394.956C912.982 395.452 912.191 395.747 911.365 395.806C910.098 395.851 908.833 395.678 907.625 395.296L898.625 393.046C898.343 392.977 898.068 392.879 897.805 392.756C897.955 391.186 898.255 389.366 899.105 388.756C900.375 387.906 904.175 389.046 905.615 389.246C908.095 389.586 910.615 389.986 913.035 390.456C913.41 391.928 913.615 393.438 913.645 394.956Z" fill="black"/>
<path d="M921.255 335.456C921.445 336.286 921.715 337.106 921.875 337.946C922.144 340.007 922.073 342.098 921.665 344.136L920.845 349.856L920.025 355.606L916.855 377.736L916.075 383.216L914.975 390.866C914.923 391.502 914.76 392.125 914.495 392.706C914.167 393.25 913.71 393.703 913.163 394.026C912.617 394.349 911.999 394.531 911.365 394.556C910.098 394.596 908.834 394.424 907.625 394.046L898.625 391.786C898.23 391.716 897.855 391.562 897.525 391.336C897.25 391.067 897.051 390.73 896.949 390.359C896.847 389.989 896.846 389.598 896.945 389.226C897.075 388.466 897.405 387.756 897.515 386.996C897.735 385.516 897.115 383.996 897.335 382.526C897.551 381.59 897.887 380.686 898.335 379.836C901.335 373.206 899.595 365.466 900.615 358.266C901.533 352.599 903.926 347.274 907.555 342.826C909.794 340.018 912.366 337.493 915.215 335.306C916.335 334.436 918.115 332.646 919.525 332.306C921.335 331.926 920.955 334.196 921.255 335.456Z" fill="#F6BD60"/>
<path d="M853.145 249.316C852.485 251.416 853.515 253.726 853.045 255.866C852.535 258.226 850.315 259.866 849.685 262.236C848.685 265.846 851.745 269.136 853.985 272.136C862.285 283.276 861.195 298.696 858.355 312.286C856.07 323.189 852.909 333.891 848.905 344.286C847.655 347.516 846.275 350.796 843.815 353.216C848.415 351.896 853.305 350.566 857.915 351.846C863.755 353.466 868.795 359.136 874.715 357.846C878.275 357.056 880.775 353.896 883.975 352.146C889.975 348.916 897.205 350.946 903.895 351.986C905.336 352.326 906.845 352.25 908.245 351.766C909.315 351.191 910.223 350.355 910.885 349.336C913.87 345.506 915.658 340.879 916.025 336.036C916.183 333.625 915.827 331.207 914.981 328.943C914.134 326.68 912.817 324.622 911.115 322.906C909.695 321.566 907.995 320.486 906.905 318.906C905.845 317.061 905.277 314.974 905.255 312.846C904.465 301.846 907.145 290.616 904.385 279.976C903.385 276.186 901.755 272.556 901.315 268.676C900.765 263.846 902.075 258.676 900.155 254.256C898.645 250.746 895.315 248.256 891.725 246.976C888.135 245.696 884.295 245.336 880.485 244.976C875.005 244.516 855.435 242.166 853.145 249.316Z" fill="#33313F"/>
<g opacity="0.1">
<path opacity="0.1" d="M856.89 489.18C854.616 500.038 851.473 510.696 847.49 521.05C848.18 519.68 848.76 518.24 849.31 516.81C853.319 506.416 856.48 495.714 858.76 484.81C861.61 471.21 862.7 455.81 854.4 444.66C852.4 442 849.83 439.12 849.92 436C849.181 436.944 848.606 438.005 848.22 439.14C847.22 442.75 850.28 446.04 852.52 449.04C860.82 460.17 859.73 475.59 856.89 489.18Z" fill="black"/>
<path opacity="0.1" d="M851.7 431.75C852.503 430.753 853.101 429.608 853.46 428.38C853.615 426.894 853.574 425.395 853.34 423.92C852.57 424.5 851.991 425.298 851.68 426.21C851.09 427.98 851.77 429.9 851.7 431.75Z" fill="black"/>
<path opacity="0.1" d="M911.3 521.83C910.638 522.846 909.73 523.679 908.66 524.25C907.262 524.744 905.751 524.82 904.31 524.47C897.62 523.47 890.31 521.41 884.39 524.64C881.18 526.38 878.69 529.54 875.12 530.34C869.21 531.66 864.17 525.99 858.33 524.34C854.19 523.19 849.83 524.14 845.66 525.34C844.831 527.107 843.713 528.723 842.35 530.12C846.95 528.8 851.84 527.47 856.45 528.75C862.29 530.37 867.33 536.04 873.25 534.75C876.81 533.96 879.31 530.8 882.51 529.05C888.51 525.82 895.74 527.85 902.43 528.89C903.872 529.23 905.38 529.154 906.78 528.67C907.85 528.095 908.758 527.259 909.42 526.24C911.232 523.849 912.632 521.173 913.56 518.32C912.892 519.543 912.136 520.716 911.3 521.83Z" fill="black"/>
</g>
</g>
<defs>
<linearGradient id="paint0_linear" x1="770.065" y1="435.526" x2="923.065" y2="435.526" gradientUnits="userSpaceOnUse">
<stop stop-color="#808080" stop-opacity="0.25"/>
<stop offset="0.54" stop-color="#808080" stop-opacity="0.12"/>
<stop offset="1" stop-color="#808080" stop-opacity="0.1"/>
</linearGradient>
<clipPath id="clip0">
<rect width="1166.17" height="805.09" fill="white"/>
</clipPath>
</defs>
</svg>
