<svg width="1167" height="806" viewBox="0 0 1167 806" fill="none" xmlns="http://www.w3.org/2000/svg">
<rect width="1167" height="806" fill="#E5E5E5"/>
<g clip-path="url(#clip0)">
<path opacity="0.1" d="M659.62 109.61C584.87 109.71 512.92 88.52 444.1 64.98C375.28 41.44 306.99 15.08 233.63 3.91001C186.45 -3.26999 132.8 -2.60999 95.92 23.46C60.42 48.54 50.14 90.05 45.18 128.4C41.45 157.25 39.73 187.53 53.7 213.92C63.4 232.24 80 247.34 91.7 264.8C132.54 325.54 107.98 403.13 68.29 465.28C49.68 494.44 27.88 522.39 13.81 553.22C-0.259969 584.05 -6.02997 619.01 8.32003 649.44C22.54 679.6 54.66 701.49 89.13 716.44C159.13 746.86 240.63 753.38 319.94 755.89C495.5 761.46 671.4 750.1 846.83 738.74C911.75 734.54 976.96 730.31 1040.54 718.14C1075.84 711.39 1112.19 701.37 1137.22 679.41C1168.99 651.53 1175.49 606.01 1152.37 573.29C1113.6 518.41 1011.37 508.06 983.57 448.68C968.24 415.99 981.46 378.5 1000.93 346.99C1042.69 279.38 1114.57 218.82 1115.78 143.2C1116.61 91.27 1079.23 40.61 1023.4 18.04C964.88 -5.59999 885.09 0.480007 844.09 44.54C801.93 89.93 725.62 109.54 659.62 109.61Z" fill="#F6BD60"/>
<path opacity="0.05" d="M525 184H162V417H525V184Z" fill="black"/>
<path d="M525 184H162V417H525V184Z" fill="#84A59D"/>
<path d="M224 261C217.275 261 210.702 262.994 205.111 266.73C199.519 270.466 195.161 275.776 192.588 281.989C190.015 288.201 189.341 295.038 190.653 301.633C191.965 308.228 195.203 314.287 199.958 319.042C204.713 323.797 210.772 327.035 217.367 328.347C223.962 329.659 230.799 328.985 237.011 326.412C243.224 323.839 248.534 319.481 252.27 313.889C256.006 308.298 258 301.725 258 295C258 290.535 257.121 286.114 255.412 281.989C253.703 277.864 251.199 274.116 248.042 270.958C244.884 267.801 241.136 265.297 237.011 263.588C232.886 261.879 228.465 261 224 261V261ZM230.098 295.817V311.916H218.079V295.817C216.415 294.558 215.19 292.808 214.574 290.815C213.959 288.822 213.985 286.686 214.649 284.708C215.313 282.731 216.582 281.012 218.275 279.794C219.969 278.576 222.002 277.921 224.088 277.921C226.174 277.921 228.208 278.576 229.901 279.794C231.595 281.012 232.863 282.731 233.527 284.708C234.192 286.686 234.218 288.822 233.602 290.815C232.987 292.808 231.761 294.558 230.098 295.817V295.817Z" fill="#666666"/>
<path opacity="0.05" d="M224 261C217.275 261 210.702 262.994 205.111 266.73C199.519 270.466 195.161 275.776 192.588 281.989C190.015 288.201 189.341 295.038 190.653 301.633C191.965 308.228 195.203 314.287 199.958 319.042C204.713 323.797 210.772 327.035 217.367 328.347C223.962 329.659 230.799 328.985 237.011 326.412C243.224 323.839 248.534 319.481 252.27 313.889C256.006 308.298 258 301.725 258 295C258 290.535 257.121 286.114 255.412 281.989C253.703 277.864 251.199 274.116 248.042 270.958C244.884 267.801 241.136 265.297 237.011 263.588C232.886 261.879 228.465 261 224 261ZM230.098 295.817V311.916H218.079V295.817C216.415 294.558 215.19 292.808 214.574 290.815C213.959 288.822 213.985 286.686 214.649 284.708C215.313 282.731 216.582 281.012 218.275 279.794C219.969 278.576 222.002 277.921 224.088 277.921C226.174 277.921 228.208 278.576 229.901 279.794C231.595 281.012 232.863 282.731 233.527 284.708C234.192 286.686 234.218 288.822 233.602 290.815C232.987 292.808 231.761 294.558 230.098 295.817Z" fill="#666666"/>
<path d="M224 251C215.298 251 206.791 253.581 199.555 258.415C192.319 263.25 186.68 270.122 183.349 278.162C180.019 286.202 179.148 295.049 180.845 303.584C182.543 312.119 186.734 319.959 192.887 326.113C199.041 332.266 206.881 336.457 215.416 338.155C223.951 339.852 232.798 338.981 240.838 335.651C248.878 332.32 255.75 326.681 260.585 319.445C265.419 312.209 268 303.702 268 295C268 283.33 263.364 272.139 255.113 263.887C246.861 255.636 235.67 251 224 251ZM231.889 296.058V316.889H216.333V296.058C214.18 294.428 212.593 292.164 211.796 289.583C210.999 287.003 211.033 284.238 211.892 281.678C212.752 279.118 214.394 276.893 216.586 275.316C218.779 273.739 221.411 272.891 224.111 272.891C226.812 272.891 229.444 273.739 231.636 275.316C233.828 276.893 235.47 279.118 236.33 281.678C237.189 284.238 237.223 287.003 236.426 289.583C235.629 292.164 234.042 294.428 231.889 296.058Z" fill="#FFC0AD"/>
<path d="M467 280H426V299H467V280Z" fill="#F6BD60"/>
<path d="M516.255 323.965C516.238 323.262 516.148 322.562 515.987 321.876C515.452 319.91 514.246 317.531 512.26 316.938C510.21 316.324 508.23 315.505 506.351 314.495C505.994 308.259 507.457 301.878 505.864 295.834C505.269 293.624 504.288 291.506 504.027 289.243C503.7 286.428 504.484 283.426 503.337 280.832C502.433 278.784 500.448 277.342 498.314 276.586C496.18 275.829 493.879 275.626 491.614 275.422C488.761 275.195 479.523 274.125 476.301 276.621C476.078 276.789 475.879 276.985 475.706 277.202V277.202C475.635 277.298 475.571 277.399 475.516 277.505L475.486 277.551C475.422 277.673 475.368 277.799 475.326 277.929V277.929C475.281 278.072 475.247 278.218 475.225 278.366C475.225 278.412 475.225 278.459 475.225 278.505C475.225 278.552 475.225 278.709 475.225 278.814V278.971C475.225 279.075 475.225 279.18 475.225 279.291C475.225 279.401 475.225 279.372 475.225 279.413C475.266 279.936 475.344 280.46 475.344 280.977C475.35 281.235 475.326 281.493 475.272 281.745C475.074 282.431 474.739 283.072 474.285 283.63V283.63L474.178 283.781C474.113 283.874 474.048 283.962 473.988 284.055C473.929 284.148 473.881 284.218 473.834 284.299C473.786 284.38 473.739 284.433 473.697 284.508C473.64 284.604 473.588 284.703 473.542 284.805C473.542 284.863 473.477 284.916 473.453 284.974C473.379 285.131 473.319 285.295 473.275 285.462C473.136 285.968 473.123 286.499 473.239 287.01C473.399 287.662 473.675 288.282 474.054 288.842C474.202 289.08 474.363 289.313 474.529 289.546L474.945 290.098C474.868 290.638 474.826 291.182 474.821 291.727C474.821 293.549 475.244 295.346 476.057 296.985C476.871 298.623 478.054 300.059 479.517 301.186C479.752 303.642 479.726 306.116 479.44 308.567C479.386 309.079 479.321 309.597 479.249 310.109C479.178 310.621 479.124 310.958 479.053 311.383C478.183 311.505 477.297 311.439 476.455 311.191C476.067 311.021 475.67 310.872 475.266 310.743C473.536 310.318 471.771 312.005 470.059 311.493C470.059 311.575 470.011 311.65 469.982 311.726C469.624 311.508 469.213 311.39 468.793 311.383C467.776 311.336 466.95 310.615 466.213 309.934L463.948 307.846C463.8 307.718 463.668 307.574 463.555 307.415C463.434 307.189 463.342 306.949 463.282 306.7C462.901 305.496 461.98 304.536 461.088 303.623C460.919 303.415 460.695 303.256 460.44 303.163C460.342 303.149 460.242 303.149 460.143 303.163C460.082 303.082 460.017 303.004 459.947 302.931C459.793 302.758 459.628 302.595 459.454 302.442C458.372 301.465 458.265 300.627 457.325 299.534C456.506 298.491 455.763 297.392 455.102 296.247C455.025 295.636 454.918 295.008 454.787 294.374C454.487 292.922 454.051 291.501 453.485 290.128L452.296 287.551L452.159 287.684C451.297 286.428 450.376 285.742 449.55 285.904C448.165 286.184 447.481 288.813 447.701 292.251L448.176 295.741C448.176 295.828 448.218 295.915 448.242 296.003C448.156 296.416 448.113 296.837 448.111 297.259C448.111 297.748 448.575 298.108 448.819 298.545C449.209 299.136 449.415 299.825 449.413 300.528C449.383 300.778 449.306 301.017 449.294 301.261C449.326 301.808 449.521 302.333 449.853 302.774L452.825 307.66L453.42 308.684L453.455 308.73C453.643 309.087 453.916 309.395 454.252 309.626C454.368 310.849 454.7 312.044 455.233 313.157C455.334 313.378 455.447 313.587 455.566 313.797C456.365 315.082 457.306 316.278 458.372 317.362L459.786 318.916C461.183 320.44 462.58 321.969 464.096 323.377C464.639 323.942 465.295 324.391 466.022 324.698C466.379 324.837 466.767 324.882 467.147 324.828C467.527 324.774 467.885 324.622 468.186 324.389C468.186 325.111 468.186 325.832 468.186 326.553C468.407 326.566 468.62 326.637 468.804 326.758C468.987 326.879 469.134 327.045 469.23 327.24C469.326 327.435 469.366 327.652 469.348 327.868C469.33 328.083 469.253 328.29 469.126 328.467C467.877 331.602 466.617 334.767 464.726 337.576C466.061 338.349 467.298 339.273 468.412 340.328C469.135 341.112 469.778 341.963 470.332 342.87C470.386 343.3 470.427 343.725 470.451 344.149C470.891 351.083 468.151 357.965 465.695 364.573C464.988 366.446 464.215 368.406 464.275 370.355C463.809 370.636 463.364 370.949 462.943 371.291C463.431 372.536 463.24 373.647 463.187 374.979C463.169 375.778 463.002 376.566 462.693 377.306C462.435 377.819 462.149 378.318 461.837 378.801C460.298 381.459 459.959 384.618 459.65 387.654C459.465 389.487 460.191 391.726 459.341 393.367C457.872 396.182 456.57 399.183 456.368 402.313C456.361 403.017 456.269 403.718 456.095 404.401C455.911 404.983 455.584 405.477 455.417 406.047C455.246 406.811 455.206 407.598 455.298 408.374C455.411 411.163 454.988 413.947 454.05 416.582C453.307 418.659 452.486 420.881 453.069 423.015C451.635 424.49 450.749 426.393 450.554 428.419C450.539 428.938 450.475 429.454 450.364 429.961C450.182 430.479 449.943 430.977 449.651 431.444C448.454 433.577 447.894 435.995 448.034 438.425C446.25 440.792 445.359 443.712 444.83 446.615C444.301 449.517 444.069 452.472 443.391 455.34C442.487 459.133 440.853 462.966 440.532 466.852C438.606 468.056 437.773 470.389 437.405 472.593C437.036 474.798 436.977 477.113 436.032 479.149C435.544 480.208 434.843 481.156 434.379 482.238C434.054 483.099 433.815 483.989 433.666 484.896C433.38 486.315 433.131 487.898 433.481 489.259C432.977 489.781 432.389 490.22 431.739 490.556C431.835 490.195 431.912 489.835 431.977 489.468C430.444 490.829 427.661 490.352 426.437 491.987C426.069 492.514 425.926 493.16 426.037 493.789C426.148 494.417 426.504 494.979 427.031 495.355C427.414 495.583 427.829 495.758 428.262 495.873C431.234 496.803 434.29 497.74 437.345 497.245C437.707 497.207 438.056 497.099 438.374 496.925C438.771 496.639 439.098 496.269 439.331 495.844C439.789 495.134 440.246 494.424 440.698 493.715C441.793 494.034 442.907 494.289 444.033 494.477C444.146 495.407 444.229 496.338 444.271 497.269C444.865 497.385 445.662 497.42 445.941 496.879C446.026 496.674 446.061 496.453 446.042 496.233C446.042 495.82 446.102 495.273 446.137 494.715H446.256C448.07 494.787 449.875 494.43 451.517 493.674C450.881 488.52 452.98 483.483 454.799 478.608C456.719 473.477 458.366 468.254 460.024 463.03C461.213 459.354 462.527 455.794 463.692 452.112C465.158 447.458 466.631 442.805 468.109 438.151C468.751 436.104 469.399 434.079 470.136 432.043C471.688 427.924 473.529 423.914 475.647 420.043C476.241 418.944 476.836 417.856 477.323 416.716C477.918 415.325 478.34 413.871 478.815 412.434C479.852 409.486 481.099 406.613 482.549 403.837C482.59 403.761 482.62 403.692 482.662 403.622C483.143 405.547 483.625 407.502 483.946 409.439C484.38 411.814 484.414 414.243 484.047 416.628C483.761 418.251 483.22 419.857 483.286 421.503C483.375 423.778 484.617 425.843 485.23 428.036C485.624 429.677 485.847 431.353 485.895 433.038C486.062 435.656 487.512 438.593 486.49 441.019C483.31 448.703 484.849 457.382 483.036 465.45C482.103 469.592 479.243 473.483 479.469 477.718C479.628 480.723 479.897 483.721 480.278 486.711C480.369 487.654 480.62 488.576 481.021 489.439C481.258 489.893 481.53 490.329 481.835 490.742C481.574 490.841 481.354 491.103 481.163 491.655C480.676 493.11 481.163 494.913 482.483 495.727C483.021 496.009 483.601 496.205 484.201 496.309C485.009 496.534 485.846 496.647 486.686 496.646C486.948 496.633 487.208 496.601 487.465 496.553C488.384 496.931 489.322 497.261 490.277 497.542C490.277 497.781 490.324 498.019 490.354 498.258C490.356 498.382 490.384 498.505 490.437 498.618C490.49 498.732 490.567 498.833 490.663 498.915C490.811 498.983 490.976 499.011 491.139 498.996H494.367C494.367 498.735 494.367 498.467 494.367 498.205C494.736 498.243 495.109 498.204 495.463 498.092C495.816 497.98 496.141 497.797 496.418 497.554C496.703 497.198 496.906 496.785 497.012 496.344C497.892 493.424 498.766 490.502 499.634 487.578C500.674 484.346 501.107 480.956 500.912 477.573C499.764 466.852 502.285 456.096 501.465 445.347C500.971 438.886 501.31 432.389 502.475 426.011C502.743 424.569 503.07 423.103 503.188 421.666C503.45 418.955 503.129 416.215 503.325 413.522C503.391 412.58 503.521 411.643 503.64 410.707C504.455 404.894 504.882 399.036 504.918 393.169C504.9 391.225 504.777 389.283 504.55 387.352C505.17 387.197 505.732 386.875 506.173 386.421C506.702 385.746 506.565 384.798 506.559 383.937C506.559 381.878 507.445 379.935 508.158 377.992C509.074 375.313 509.824 372.581 510.405 369.814C511.02 367.583 511.355 365.288 511.404 362.979C511.404 362.746 511.392 362.514 511.368 362.281C511.592 362.129 511.779 361.93 511.915 361.699C512.07 361.358 512.167 360.995 512.201 360.623C512.415 359.14 512.635 357.651 512.849 356.161C513.007 355.095 513.164 354.03 513.318 352.968L515.209 340.06C515.369 338.937 515.536 337.821 515.696 336.704L516.189 333.365C516.243 332.969 516.302 332.574 516.344 332.201C517.795 329.828 516.409 326.664 516.255 323.965ZM500.484 372.292C499.782 370.663 499.128 368.994 499.295 367.237H499.229C499.386 366.696 499.359 366.121 499.152 365.596C498.968 365.172 498.647 364.811 498.451 364.387C498.24 363.868 498.131 363.316 498.13 362.758C497.982 359.22 498.267 355.677 498.98 352.206C499.057 351.799 499.14 351.386 499.217 350.978C499.467 350.838 499.695 350.663 499.895 350.461C500.208 350.112 500.466 349.72 500.662 349.297C501.334 347.977 501.946 346.633 502.511 345.266C502.695 344.824 502.963 344.312 503.42 344.202C503.325 347.605 503.682 351.077 502.267 354.149C501.998 354.644 501.798 355.172 501.673 355.719C501.542 356.586 501.91 357.464 501.78 358.325C501.714 358.773 501.518 359.186 501.441 359.628C501.382 359.845 501.383 360.074 501.444 360.29C501.504 360.507 501.622 360.704 501.786 360.862C501.864 360.916 501.95 360.959 502.041 360.989C502.005 361.222 501.976 361.461 501.952 361.687C501.904 362.164 501.881 362.612 501.851 362.892C501.714 364.315 501.661 365.744 501.69 367.173C501.69 368.714 501.75 370.256 501.726 371.826C501.748 372.277 501.671 372.728 501.5 373.147C501.382 373.363 501.23 373.56 501.048 373.729C500.876 373.205 500.686 372.745 500.484 372.292Z" fill="url(#paint0_linear)"/>
<path d="M453.558 304.793C455.372 304.429 455.989 300.061 454.937 295.035C453.884 290.01 451.56 286.231 449.746 286.595C447.932 286.958 447.315 291.327 448.368 296.352C449.42 301.378 451.744 305.157 453.558 304.793Z" fill="#FBBEBE"/>
<path d="M481.18 491.6C480.706 493.069 481.18 494.905 482.464 495.704C482.984 495.988 483.544 496.188 484.124 496.296C484.908 496.523 485.72 496.637 486.535 496.634C487.536 496.586 488.496 496.184 489.496 496.042C489.612 496.012 489.734 496.029 489.838 496.089C489.888 496.144 489.925 496.21 489.947 496.281C489.969 496.353 489.975 496.429 489.965 496.503C489.975 497.086 490.018 497.667 490.092 498.244C490.093 498.371 490.12 498.497 490.172 498.612C490.224 498.727 490.299 498.83 490.393 498.913C490.537 498.982 490.697 499.011 490.855 498.996H493.99C494.061 496.177 493.759 493.36 493.093 490.623C493.05 490.414 492.972 490.214 492.862 490.031C492.596 489.733 492.247 489.526 491.862 489.439C491.095 489.113 490.268 488.965 489.438 489.007C488.426 489.143 487.582 489.812 486.72 490.369C485.859 490.925 484.685 491.417 483.638 491.133C482.591 490.848 481.718 489.954 481.18 491.6Z" fill="#3F3D56"/>
<path d="M433.837 489.249C432.966 490.241 431.898 491.013 430.711 491.51L430.185 491.777C430.112 491.807 430.05 491.86 430.008 491.929C429.998 491.977 429.997 492.026 430.007 492.073C430.017 492.12 430.037 492.164 430.065 492.203C430.502 492.922 431.149 493.47 431.906 493.763C432.663 494.056 433.49 494.078 434.26 493.825C434.6 493.735 434.916 493.56 435.18 493.315C435.616 492.765 435.866 492.076 435.889 491.358C436.062 490.617 436.032 489.839 435.803 489.115C435.009 487.213 434.717 488.076 433.837 489.249Z" fill="#FBBEBE"/>
<path d="M445.858 495.873C445.876 496.089 445.842 496.306 445.758 496.506C445.48 497.031 444.706 497.003 444.104 496.889C444.012 494.953 443.769 493.026 443.377 491.126C442.231 491.075 441.404 492.125 440.79 493.066L439.207 495.491C438.978 495.908 438.655 496.271 438.261 496.552C437.945 496.719 437.598 496.826 437.239 496.866C434.215 497.351 431.161 496.432 428.243 495.519C427.813 495.408 427.401 495.239 427.02 495.017C426.499 494.648 426.147 494.098 426.037 493.483C425.926 492.868 426.067 492.236 426.429 491.719C427.652 490.122 430.399 490.578 431.923 489.255C431.764 490.186 431.502 491.098 431.143 491.976C433.181 491.679 434.552 489.876 436.194 488.673C436.606 488.335 437.103 488.106 437.635 488.011C438.033 487.978 438.434 488.019 438.817 488.131C440.71 488.591 442.482 489.433 444.015 490.601C444.635 491.075 445.604 491.742 445.876 492.473C446.165 493.345 445.858 494.943 445.858 495.873Z" fill="#3F3D56"/>
<path d="M487 304C493.627 304 499 298.627 499 292C499 285.373 493.627 280 487 280C480.373 280 475 285.373 475 292C475 298.627 480.373 304 487 304Z" fill="#FBBEBE"/>
<path d="M511 363.737C510.953 366.005 510.639 368.258 510.065 370.448C509.517 373.168 508.81 375.851 507.947 378.484C507.281 380.395 506.446 382.313 506.452 384.339C506.452 385.183 506.586 386.118 506.082 386.784C505.633 387.252 505.067 387.583 504.446 387.743C504.136 387.827 503.85 387.985 503.611 388.203C503.372 388.421 503.186 388.694 503.068 389C502.542 388.195 502.149 387.307 501.903 386.371C500.899 383.218 499.965 380.047 499.102 376.86C499.023 376.676 498.989 376.476 499.003 376.276C499.017 376.076 499.078 375.882 499.181 375.711C499.323 375.585 499.489 375.489 499.668 375.43C500.242 375.19 500.768 374.844 501.22 374.408C501.432 374.216 501.606 373.984 501.735 373.725C501.898 373.314 501.972 372.872 501.953 372.428C501.953 370.907 501.953 369.392 501.914 367.87C501.891 366.466 501.943 365.061 502.071 363.663C502.071 363.387 502.122 362.945 502.166 362.475C502.25 361.573 502.418 360.529 502.895 360.179C503.606 359.691 505.735 360.345 506.541 360.46C507.93 360.655 509.342 360.885 510.697 361.154C510.894 362.001 510.996 362.867 511 363.737Z" fill="#3F3D56"/>
<path d="M461.966 305.65C461.472 306.55 460.287 306.984 459.373 307.552L456.244 309.511C456.035 309.683 455.789 309.814 455.523 309.897C455.257 309.98 454.975 310.014 454.694 309.995C454.44 309.909 454.206 309.778 454.008 309.609C453.81 309.44 453.651 309.236 453.54 309.01C453.542 308.995 453.542 308.98 453.54 308.965L452.892 307.974L449.805 303.257C449.462 302.835 449.263 302.33 449.231 301.805C449.231 301.563 449.324 301.338 449.349 301.096C449.357 300.416 449.142 299.75 448.731 299.182C448.484 298.76 447.991 298.411 448.003 297.938C447.979 297.317 448.097 296.698 448.349 296.12C448.672 295.586 449.137 295.133 449.7 294.803C449.991 294.612 450.287 294.432 450.596 294.24C450.759 294.138 450.941 294.062 451.133 294.015C451.645 293.919 452.151 294.308 452.67 294.325C454.898 295.687 455.756 298.265 457.509 300.122C458.497 301.18 458.595 301.991 459.713 302.937C459.892 303.083 460.065 303.24 460.231 303.404C460.452 303.623 460.639 303.87 460.787 304.135C460.991 304.62 462.219 305.188 461.966 305.65Z" fill="#3F3D56"/>
<path d="M482.598 304.726C483.494 306.534 484.191 308.52 483.932 310.505C483.879 311.043 483.701 311.563 483.409 312.026C482.544 313.295 480.729 313.524 479.148 313.599C478.815 313.572 478.479 313.609 478.162 313.708C477.844 313.806 477.55 313.964 477.296 314.173C477.085 314.466 476.982 314.818 477.003 315.173C477.023 315.528 477.167 315.867 477.411 316.136C477.919 316.653 478.549 317.047 479.25 317.284C481.75 318.334 484.449 319.2 487.166 318.959C488.428 318.845 489.655 318.495 490.911 318.317C492.28 318.175 493.657 318.102 495.034 318.098C496.669 318.041 498.298 317.886 499.927 317.731L504.243 317.324C504.479 317.327 504.708 317.247 504.886 317.1C505.204 316.744 504.796 316.222 504.399 315.952C502.109 314.334 499.194 313.22 497.889 310.787C497.288 309.639 497.102 308.273 496.657 307.033C496.212 305.794 495.503 304.674 495.227 303.412C495.079 302.304 495.013 301.188 495.028 300.071C495.043 298.946 494.614 297.856 493.826 297.018C492.967 296.255 491.722 296.06 490.556 296.014C487.683 295.893 484.624 296.548 482.586 298.482C482.039 299.004 481.57 299.63 481.005 300.1C480.44 300.571 479.671 300.709 480.043 301.328C480.416 301.948 481.149 302.333 481.546 302.878C481.948 303.466 482.299 304.084 482.598 304.726V304.726Z" fill="#FBBEBE"/>
<path d="M506.74 320.947C505.988 325.424 504.766 329.814 503.092 334.047C502.25 335.958 501.533 337.919 500.945 339.919C500.486 341.722 500.576 343.652 500.153 345.46C499.628 347.71 499.103 349.966 498.68 352.234C497.97 355.697 497.686 359.23 497.834 362.758C497.835 363.314 497.944 363.864 498.156 364.38C498.352 364.799 498.668 365.159 498.853 365.59C498.991 365.967 499.048 366.369 499.019 366.769C498.99 367.17 498.877 367.56 498.686 367.915C498.38 368.581 497.965 369.194 497.458 369.729C491.902 371.346 485.958 370.817 480.17 371.16C474.834 371.474 469.439 372.544 464.181 371.654C463.585 369.328 464.581 366.892 465.433 364.624C467.907 358.037 470.643 351.176 470.202 344.274C470.156 343.469 470.062 342.667 469.922 341.873C469.058 336.983 469.999 331.918 471.508 327.18C472.444 324.226 472.402 321.08 472.187 318.005C472.081 317.006 472.067 316 472.146 314.999C472.232 313.976 472.621 313 473.266 312.19C473.266 312.15 473.32 312.109 473.35 312.068C473.38 312.027 473.612 312.033 473.797 312.068C473.844 312.088 473.895 312.098 473.946 312.098C473.997 312.098 474.048 312.088 474.095 312.068L474.161 312.027C474.186 312.01 474.216 312.001 474.247 312.001C474.278 312.001 474.308 312.01 474.333 312.027C474.471 312.109 474.548 312.388 474.846 312.44C475.287 312.505 475.73 312.546 476.176 312.562C476.711 312.578 477.243 312.652 477.761 312.783H477.833C478.608 312.911 479.404 312.845 480.146 312.591C480.64 312.471 481.116 312.291 481.565 312.057C481.696 311.917 482.519 311.789 482.685 311.69C483.228 311.37 483.109 309.87 483.222 309.254C483.285 308.636 483.435 308.029 483.669 307.452C483.941 307.025 484.315 306.67 484.76 306.418C485.205 306.165 485.706 306.023 486.221 306.004C487.247 305.98 488.273 306.07 489.279 306.271C491.502 306.579 493.78 306.527 495.962 307.027C497.059 307.277 498.257 307.655 499.264 307.167C499.539 307.231 499.58 307.463 499.58 307.748C499.555 308.019 499.499 308.286 499.413 308.545C499.032 310.149 500.325 311.626 501.518 312.789C502.021 313.337 502.616 313.799 503.276 314.156C503.873 314.423 504.469 314.533 505.065 314.824C505.548 315.075 505.958 315.441 506.257 315.888C506.601 316.401 506.832 316.977 506.937 317.58C507.065 318.705 506.998 319.843 506.74 320.947Z" fill="#3F3D56"/>
<path opacity="0.1" d="M506.747 321.109C506.003 325.666 504.793 330.134 503.137 334.443C502.304 336.389 501.594 338.385 501.013 340.421C500.558 342.255 500.647 344.22 500.228 346.061C499.709 348.352 499.189 350.648 498.771 352.956C498.647 353.027 498.517 353.092 498.387 353.151C497.653 353.503 496.875 353.754 496.074 353.897C494.636 354.072 493.179 354.024 491.755 353.755L483.336 352.625C479.973 352.169 476.392 351.619 473.896 349.334C472.509 348.079 471.601 346.422 470.604 344.824C470.558 344.005 470.465 343.189 470.326 342.38C469.471 337.402 470.403 332.247 471.896 327.424C472.822 324.417 472.781 321.215 472.568 318.084C472.463 317.068 472.449 316.043 472.527 315.024C472.612 313.984 472.998 312.99 473.636 312.166C473.809 312.115 473.984 312.075 474.161 312.047V312.047C474.28 312.023 474.4 312.007 474.521 312H474.692C474.891 312.001 475.089 312.025 475.282 312.071C475.684 312.199 476.078 312.352 476.462 312.527H476.533C477.039 312.694 477.57 312.77 478.103 312.752C478.881 312.752 479.684 312.627 480.463 312.574C481.425 312.423 482.409 312.601 483.259 313.077C483.808 313.519 484.328 313.996 484.817 314.504C485.407 314.969 486.071 315.331 486.782 315.575C491.86 317.519 497.495 317.4 502.488 315.243C502.967 314.97 503.511 314.831 504.063 314.841C504.47 314.921 504.856 315.086 505.196 315.326C505.55 315.533 505.898 315.735 506.258 315.918C506.598 316.44 506.827 317.026 506.93 317.64C507.066 318.798 507.004 319.971 506.747 321.109V321.109Z" fill="black"/>
<path d="M512.315 317.325C509.949 316.606 507.676 315.613 505.542 314.367C505.199 314.128 504.811 313.963 504.401 313.881C503.844 313.875 503.295 314.013 502.808 314.284C497.782 316.44 492.11 316.559 486.997 314.615C486.283 314.369 485.614 314.007 485.018 313.544C484.524 313.038 484.001 312.562 483.45 312.118C481.495 310.857 478.791 312.337 476.605 311.526C476.217 311.354 475.82 311.202 475.416 311.07C473.687 310.639 471.928 312.355 470.229 311.834C469.597 313.545 469.129 315.313 468.833 317.112C468.591 319.179 468.462 321.257 468.446 323.338C468.446 324.586 468.387 325.835 468.446 327.083C468.656 327.117 468.856 327.195 469.034 327.31C469.212 327.425 469.364 327.575 469.48 327.752C469.558 327.958 469.59 328.179 469.574 328.399C469.557 328.618 469.493 328.832 469.385 329.024C468.143 332.202 466.884 335.415 465 338.262C466.327 339.049 467.56 339.987 468.672 341.055C470.752 343.244 471.774 346.315 474.02 348.339C476.551 350.617 480.158 351.174 483.527 351.623L492.006 352.754C493.442 353.021 494.91 353.071 496.361 352.902C497.166 352.755 497.947 352.503 498.685 352.15C499.166 351.95 499.606 351.66 499.98 351.298C500.293 350.944 500.552 350.545 500.746 350.114C501.418 348.777 502.03 347.41 502.594 346.025C502.791 345.534 503.088 344.96 503.622 344.919C506.772 342.09 509.743 339.191 512.892 336.362C514.157 335.318 515.292 334.125 516.273 332.812C517.835 330.51 516.415 327.249 516.273 324.468C516.255 323.756 516.166 323.049 516.005 322.355C515.494 320.337 514.294 317.923 512.315 317.325Z" fill="#F6BD60"/>
<path opacity="0.1" d="M461.968 305.454C461.501 306.395 460.381 306.848 459.517 307.442L456.56 309.489C456.362 309.668 456.13 309.806 455.879 309.893C455.627 309.98 455.361 310.014 455.095 309.995C454.855 309.905 454.634 309.768 454.447 309.591C454.259 309.414 454.109 309.202 454.004 308.965C454.004 308.83 454.004 308.683 454.004 308.542C453.982 308.066 454.045 307.59 454.191 307.136C454.481 306.471 454.93 305.889 455.498 305.443C456.596 304.394 457.903 303.592 459.331 303.09C459.553 303.003 459.795 302.978 460.031 303.019C460.122 303.043 460.208 303.081 460.288 303.131C460.496 303.361 460.673 303.618 460.813 303.896C461.046 304.378 462.207 304.972 461.968 305.454Z" fill="black"/>
<path d="M468.937 311.959C467.895 311.914 467.042 311.218 466.282 310.556L463.958 308.564C463.802 308.443 463.666 308.302 463.553 308.145C463.427 307.925 463.333 307.691 463.271 307.449C462.778 306.306 462.006 305.284 461.014 304.462C460.841 304.259 460.61 304.106 460.346 304.021C460.096 303.978 459.839 304.002 459.604 304.088C458.102 304.571 456.729 305.342 455.575 306.352C454.978 306.782 454.506 307.342 454.201 307.981C454.047 308.417 453.98 308.876 454.005 309.334C454.019 310.829 454.383 312.303 455.072 313.656C455.176 313.866 455.293 314.075 455.415 314.279C456.234 315.526 457.2 316.686 458.298 317.736L459.757 319.241C461.192 320.723 462.627 322.206 464.185 323.569C464.743 324.119 465.42 324.554 466.172 324.848C466.549 324.99 466.961 325.034 467.364 324.974C467.766 324.914 468.143 324.753 468.453 324.509C468.747 324.195 468.968 323.829 469.103 323.434C470.047 321.17 470.943 318.817 470.998 316.378C471.011 315.401 470.966 314.425 470.863 313.453C470.771 312.423 469.98 312.021 468.937 311.959Z" fill="#F6BD60"/>
<path d="M505 393.685C504.966 399.511 504.543 405.327 503.734 411.099C503.616 412.031 503.486 412.963 503.421 413.896C503.226 416.6 503.545 419.316 503.285 422.003C503.149 423.456 502.841 424.898 502.581 426.317C501.425 432.65 501.087 439.099 501.575 445.514C502.392 456.187 499.89 466.865 501.025 477.509C501.163 479.579 501.046 481.657 500.676 483.699C500.465 484.967 500.158 486.217 499.76 487.44C498.896 490.34 498.029 493.235 497.157 496.127C497.055 496.567 496.852 496.978 496.566 497.331C496.264 497.587 495.91 497.776 495.528 497.887C495.145 497.998 494.743 498.028 494.348 497.974C490.935 497.87 487.723 496.428 484.624 495.021C484.268 494.883 483.938 494.687 483.648 494.442C483.003 493.787 483.057 492.756 482.773 491.894C482.489 491.031 481.72 490.22 481.282 489.334C480.922 488.496 480.705 487.606 480.637 486.699C480.243 483.734 479.975 480.758 479.833 477.77C479.608 473.565 482.447 469.697 483.382 465.609C485.156 457.571 483.654 448.954 486.806 441.327C487.8 438.918 486.357 436 486.215 433.405C486.164 431.732 485.942 430.067 485.553 428.437C484.961 426.259 483.713 424.209 483.624 421.951C483.559 420.318 484.098 418.725 484.376 417.115C484.744 414.746 484.71 412.334 484.275 409.975C483.961 408.029 483.482 406.084 483.003 404.184L482.897 404.399C481.456 407.156 480.216 410.011 479.188 412.94C478.715 414.359 478.301 415.807 477.71 417.185C477.225 418.343 476.627 419.403 476.042 420.491C473.942 424.331 472.114 428.307 470.571 432.392C469.837 434.396 469.193 436.446 468.554 438.455L464.171 452.353C462.988 456.007 461.693 459.54 460.534 463.188C458.895 468.4 457.257 473.565 455.352 478.661C453.578 483.497 451.466 488.506 452.099 493.614C450.468 494.364 448.677 494.72 446.877 494.65C443.828 494.386 440.837 493.676 438.005 492.542C436.875 492.131 435.704 491.668 434.941 490.759C433.628 489.189 433.953 486.89 434.349 484.892C434.499 483.992 434.736 483.108 435.059 482.252C435.509 481.186 436.242 480.242 436.703 479.188C437.632 477.167 437.691 474.88 438.058 472.685C438.424 470.49 439.241 468.174 441.157 466.981C441.482 463.124 443.103 459.32 443.996 455.55C444.67 452.695 444.895 449.759 445.427 446.863C445.96 443.968 446.817 441.072 448.604 438.727C448.463 436.309 449.02 433.901 450.212 431.778C450.5 431.312 450.736 430.817 450.916 430.301C451.027 429.798 451.09 429.287 451.106 428.773C451.301 426.76 452.18 424.87 453.601 423.404C453.01 421.291 453.832 419.084 454.572 417.034C455.503 414.418 455.924 411.655 455.814 408.886C455.722 408.114 455.76 407.331 455.926 406.57C456.092 405.991 456.417 405.499 456.606 404.943C456.775 404.262 456.864 403.565 456.872 402.864C457.103 399.731 458.398 396.778 459.83 393.981C460.681 392.348 459.96 390.13 460.137 388.311C460.445 385.288 460.782 382.161 462.314 379.526C462.598 379.028 462.905 378.554 463.16 378.038C463.468 377.302 463.634 376.517 463.651 375.722C463.704 374.396 463.893 373.295 463.408 372.062C466.572 369.485 470.89 368.761 475.007 368.587C479.123 368.414 483.287 368.779 487.315 367.921C488.498 367.661 489.681 367.302 490.929 367.128C493.762 366.723 496.637 367.354 499.434 367.979C499.239 369.717 499.89 371.384 500.617 373C503.458 379.545 504.947 386.575 505 393.685V393.685Z" fill="#33313F"/>
<path opacity="0.1" d="M491 395L484.349 410C484.042 408.05 483.573 406.099 483.104 404.195L483 404.41V404.096L486.624 396.103L491 395Z" fill="black"/>
<path opacity="0.1" d="M511 363.535C510.623 363.804 510.174 363.964 509.705 363.996C508.985 364.021 508.266 363.927 507.58 363.719L502.466 362.498C502.306 362.46 502.15 362.407 502 362.34C502.085 361.488 502.256 360.5 502.739 360.169C503.46 359.707 505.619 360.326 506.437 360.435C507.847 360.619 509.278 360.837 510.653 361.092C510.867 361.891 510.983 362.71 511 363.535V363.535Z" fill="black"/>
<path d="M515.535 328.845C515.648 329.324 515.809 329.798 515.905 330.284C516.065 331.475 516.023 332.683 515.78 333.861L515.291 337.166L514.802 340.489L512.912 353.277L512.447 356.444L511.792 360.864C511.761 361.232 511.664 361.592 511.505 361.928C511.31 362.242 511.037 362.504 510.712 362.69C510.386 362.877 510.018 362.982 509.64 362.997C508.885 363.02 508.131 362.92 507.41 362.702L502.045 361.396C501.81 361.356 501.586 361.267 501.389 361.136C501.225 360.981 501.107 360.786 501.046 360.572C500.986 360.357 500.985 360.131 501.044 359.917C501.121 359.478 501.318 359.067 501.383 358.628C501.514 357.773 501.145 356.894 501.276 356.045C501.405 355.504 501.605 354.982 501.872 354.491C503.661 350.659 502.623 346.187 503.231 342.026C503.779 338.751 505.205 335.674 507.368 333.104C508.703 331.481 510.236 330.022 511.935 328.758C512.602 328.255 513.663 327.221 514.504 327.024C515.583 326.805 515.356 328.117 515.535 328.845Z" fill="#F6BD60"/>
<path d="M475.553 278.944C475.16 280.162 475.773 281.502 475.494 282.743C475.19 284.112 473.869 285.063 473.494 286.438C472.899 288.531 474.72 290.44 476.053 292.18C480.993 298.641 480.344 307.584 478.654 315.466C477.294 321.79 475.413 327.996 473.029 334.026C472.285 335.899 471.464 337.801 470 339.205C472.738 338.439 475.648 337.668 478.392 338.41C481.868 339.35 484.868 342.638 488.391 341.89C490.51 341.432 491.998 339.599 493.903 338.584C497.474 336.711 501.777 337.888 505.759 338.492C506.617 338.689 507.514 338.645 508.348 338.364C508.985 338.03 509.525 337.546 509.919 336.955C511.696 334.733 512.76 332.049 512.978 329.241C513.072 327.842 512.861 326.44 512.357 325.127C511.853 323.814 511.069 322.621 510.056 321.625C509.211 320.848 508.199 320.222 507.55 319.306C506.919 318.235 506.581 317.025 506.568 315.791C506.098 309.411 507.693 302.898 506.05 296.727C505.455 294.528 504.485 292.423 504.223 290.173C503.896 287.371 504.675 284.373 503.533 281.809C502.634 279.774 500.652 278.329 498.515 277.587C496.379 276.845 494.093 276.636 491.825 276.427C488.564 276.16 476.916 274.797 475.553 278.944Z" fill="#33313F"/>
<g opacity="0.1">
<path opacity="0.1" d="M856.89 489.18C854.616 500.038 851.473 510.696 847.49 521.05C848.18 519.68 848.76 518.24 849.31 516.81C853.319 506.416 856.48 495.714 858.76 484.81C861.61 471.21 862.7 455.81 854.4 444.66C852.4 442 849.83 439.12 849.92 436C849.181 436.944 848.606 438.005 848.22 439.14C847.22 442.75 850.28 446.04 852.52 449.04C860.82 460.17 859.73 475.59 856.89 489.18Z" fill="black"/>
<path opacity="0.1" d="M851.7 431.75C852.503 430.753 853.101 429.608 853.46 428.38C853.615 426.894 853.574 425.395 853.34 423.92C852.57 424.5 851.991 425.298 851.68 426.21C851.09 427.98 851.77 429.9 851.7 431.75Z" fill="black"/>
<path opacity="0.1" d="M911.3 521.83C910.638 522.846 909.73 523.679 908.66 524.25C907.262 524.744 905.751 524.82 904.31 524.47C897.62 523.47 890.31 521.41 884.39 524.64C881.18 526.38 878.69 529.54 875.12 530.34C869.21 531.66 864.17 525.99 858.33 524.34C854.19 523.19 849.83 524.14 845.66 525.34C844.831 527.107 843.713 528.723 842.35 530.12C846.95 528.8 851.84 527.47 856.45 528.75C862.29 530.37 867.33 536.04 873.25 534.75C876.81 533.96 879.31 530.8 882.51 529.05C888.51 525.82 895.74 527.85 902.43 528.89C903.872 529.23 905.38 529.154 906.78 528.67C907.85 528.095 908.758 527.259 909.42 526.24C911.232 523.849 912.632 521.173 913.56 518.32C912.892 519.543 912.136 520.716 911.3 521.83Z" fill="black"/>
</g>
</g>
<defs>
<linearGradient id="paint0_linear" x1="426.039" y1="386.991" x2="516.992" y2="386.991" gradientUnits="userSpaceOnUse">
<stop stop-color="#808080" stop-opacity="0.25"/>
<stop offset="0.54" stop-color="#808080" stop-opacity="0.12"/>
<stop offset="1" stop-color="#808080" stop-opacity="0.1"/>
</linearGradient>
<clipPath id="clip0">
<rect width="1166.17" height="805.09" fill="white"/>
</clipPath>
</defs>
</svg>
