<svg width="655" height="518" viewBox="0 0 655 518" fill="none" xmlns="http://www.w3.org/2000/svg">
<rect width="655" height="518" fill="#E5E5E5"/>
<g clip-path="url(#clip0)">
<path d="M559.842 61.8237H558.736V23.6945C558.736 20.7965 558.282 17.9269 557.401 15.2494C556.519 12.572 555.227 10.1392 553.599 8.09C551.97 6.04078 550.036 4.41525 547.908 3.30622C545.78 2.1972 543.5 1.62639 541.196 1.6264H476.993C474.69 1.62639 472.409 2.1972 470.281 3.30622C468.153 4.41525 466.22 6.04078 464.591 8.09C462.962 10.1392 461.67 12.572 460.789 15.2494C459.908 17.9269 459.454 20.7965 459.454 23.6945V232.874C459.454 235.772 459.908 238.642 460.789 241.319C461.67 243.997 462.962 246.43 464.591 248.479C466.22 250.528 468.153 252.154 470.281 253.263C472.409 254.372 474.69 254.942 476.993 254.942H541.196C543.5 254.942 545.78 254.372 547.908 253.263C550.036 252.154 551.97 250.528 553.599 248.479C555.227 246.43 556.519 243.997 557.401 241.319C558.282 238.642 558.736 235.772 558.736 232.874V88.9647H559.842V61.8237Z" fill="#0E3B43"/>
<path d="M555.003 24.9912V233.867C555.003 238.238 553.623 242.43 551.166 245.521C548.71 248.613 545.378 250.349 541.903 250.349H477.391C475.671 250.349 473.968 249.923 472.379 249.094C470.79 248.266 469.347 247.051 468.131 245.521C466.915 243.99 465.951 242.173 465.293 240.174C464.635 238.174 464.297 236.031 464.297 233.867V24.9912C464.297 20.6218 465.677 16.4313 468.133 13.3416C470.588 10.2519 473.919 8.51611 477.391 8.51605H485.218C484.834 9.70481 484.688 10.9941 484.793 12.2705C484.897 13.5469 485.25 14.7715 485.819 15.8364C486.388 16.9014 487.156 17.7742 488.056 18.3781C488.956 18.982 489.96 19.2985 490.979 19.2998H527.762C528.783 19.3023 529.788 18.9881 530.69 18.3852C531.591 17.7824 532.361 16.9093 532.931 15.8432C533.5 14.7771 533.852 13.5509 533.955 12.2729C534.059 10.995 533.91 9.70463 533.523 8.51605H541.903C545.377 8.51584 548.708 10.2513 551.164 13.3408C553.621 16.4304 555.002 20.621 555.003 24.9912Z" fill="#F5CAC3"/>
<path d="M542.79 115.455H467.797V140.917H542.79V115.455Z" fill="#84A59D"/>
<path d="M545.766 136.423H473.154C472.68 136.423 472.226 136.186 471.892 135.765C471.557 135.344 471.369 134.772 471.368 134.177V111.711C471.369 111.115 471.557 110.544 471.892 110.123C472.226 109.702 472.68 109.465 473.154 109.464H545.766C546.24 109.465 546.694 109.702 547.028 110.123C547.363 110.544 547.551 111.115 547.552 111.711V134.177C547.551 134.772 547.363 135.344 547.028 135.765C546.694 136.186 546.24 136.423 545.766 136.423ZM473.154 110.962C472.996 110.962 472.845 111.041 472.733 111.181C472.621 111.322 472.559 111.512 472.559 111.711V134.177C472.559 134.375 472.621 134.566 472.733 134.706C472.845 134.847 472.996 134.926 473.154 134.926H545.766C545.924 134.926 546.075 134.847 546.187 134.706C546.299 134.566 546.361 134.375 546.361 134.177V111.711C546.361 111.512 546.299 111.322 546.187 111.181C546.075 111.041 545.924 110.962 545.766 110.962H473.154Z" fill="#3F3D56"/>
<path opacity="0.1" d="M554.929 217.141V238.379C554.929 242.751 553.549 246.943 551.092 250.034C548.635 253.125 545.303 254.862 541.829 254.862H477.317C475.597 254.862 473.894 254.435 472.305 253.606C470.716 252.778 469.273 251.564 468.057 250.033C466.841 248.503 465.876 246.686 465.219 244.686C464.561 242.686 464.223 240.543 464.223 238.379V140.681L554.929 217.141Z" fill="black"/>
<path d="M340.952 344.262H59.4298V518H340.952V344.262Z" fill="#F5CAC3"/>
<path opacity="0.1" d="M269.381 518H60.6202C60.3048 517.999 60.0026 517.841 59.7795 517.56C59.5565 517.279 59.4308 516.899 59.4299 516.502V345.759C59.4308 345.363 59.5565 344.982 59.7795 344.702C60.0026 344.421 60.3048 344.263 60.6202 344.262H63.2629L269.381 518Z" fill="black"/>
<path d="M520.314 239.605L285.37 449.692L286.105 450.553L521.049 240.466L520.314 239.605Z" fill="#0E3B43"/>
<path d="M327.704 3.23345H203.019V0H146.482V3.23345H21.2834C20.1758 3.23345 19.0791 3.50793 18.0558 4.04123C17.0325 4.57452 16.1028 5.35618 15.3196 6.34158C14.5365 7.32698 13.9152 8.49681 13.4914 9.7843C13.0675 11.0718 12.8494 12.4517 12.8494 13.8453V228.664C12.8494 231.478 13.7379 234.177 15.3196 236.167C16.9013 238.157 19.0465 239.275 21.2834 239.275H327.704C329.941 239.275 332.086 238.157 333.668 236.167C335.249 234.177 336.138 231.478 336.138 228.664V13.8453C336.138 12.4517 335.92 11.0718 335.496 9.7843C335.072 8.49681 334.451 7.32698 333.668 6.34158C332.885 5.35618 331.955 4.57452 330.932 4.04123C329.908 3.50793 328.812 3.23345 327.704 3.23345V3.23345Z" fill="#0E3B43"/>
<path d="M324.828 21.9844H24.1592V235.398H324.828V21.9844Z" fill="#F5CAC3"/>
<path d="M174.237 16.1673C175.94 16.1673 177.321 14.4301 177.321 12.2871C177.321 10.1442 175.94 8.40698 174.237 8.40698C172.534 8.40698 171.153 10.1442 171.153 12.2871C171.153 14.4301 172.534 16.1673 174.237 16.1673Z" fill="#84A59D"/>
<path d="M113.592 101.627H106.449C105.976 101.626 105.522 101.39 105.187 100.968C104.853 100.547 104.664 99.9761 104.664 99.3804V90.394C104.664 89.7983 104.853 89.2273 105.187 88.8061C105.522 88.3849 105.976 88.148 106.449 88.1473H113.592C114.065 88.148 114.519 88.3849 114.854 88.8061C115.188 89.2273 115.377 89.7983 115.377 90.394V99.3804C115.377 99.9761 115.188 100.547 114.854 100.968C114.519 101.39 114.065 101.626 113.592 101.627V101.627ZM106.449 89.6451C106.292 89.6453 106.14 89.7243 106.029 89.8647C105.917 90.0051 105.854 90.1954 105.854 90.394V99.3804C105.854 99.579 105.917 99.7693 106.029 99.9097C106.14 100.05 106.292 100.129 106.449 100.129H113.592C113.749 100.129 113.901 100.05 114.012 99.9097C114.124 99.7693 114.187 99.579 114.187 99.3804V90.394C114.187 90.1954 114.124 90.0051 114.012 89.8647C113.901 89.7243 113.749 89.6453 113.592 89.6451H106.449Z" fill="#3F3D56"/>
<path d="M240.961 100.129H105.259V101.627H240.961V100.129Z" fill="#3F3D56"/>
<path d="M237.39 141.317H205.845V153.299H237.39V141.317Z" fill="#84A59D"/>
<path d="M239.771 150.304H210.607C210.133 150.303 209.679 150.066 209.345 149.645C209.01 149.224 208.822 148.653 208.821 148.057V139.071C208.822 138.475 209.01 137.904 209.345 137.483C209.679 137.062 210.133 136.825 210.607 136.824H239.771C240.244 136.825 240.698 137.062 241.033 137.483C241.367 137.904 241.556 138.475 241.556 139.071V148.057C241.556 148.653 241.367 149.224 241.033 149.645C240.698 150.066 240.244 150.303 239.771 150.304V150.304ZM210.607 138.322C210.449 138.322 210.297 138.401 210.186 138.541C210.074 138.682 210.012 138.872 210.011 139.071V148.057C210.012 148.256 210.074 148.446 210.186 148.586C210.297 148.727 210.449 148.806 210.607 148.806H239.771C239.928 148.806 240.08 148.727 240.191 148.586C240.303 148.446 240.366 148.256 240.366 148.057V139.071C240.366 138.872 240.303 138.682 240.191 138.541C240.08 138.401 239.928 138.322 239.771 138.322H210.607Z" fill="#3F3D56"/>
<path d="M428.453 321.209H384.733V356.989H428.453V321.209Z" fill="#84A59D"/>
<path d="M433.069 353.736H391.245C390.783 353.736 390.34 353.522 390.013 353.143C389.687 352.764 389.503 352.25 389.502 351.714V318.352C389.503 317.816 389.687 317.302 390.013 316.923C390.34 316.543 390.783 316.33 391.245 316.33H433.069C433.531 316.33 433.974 316.543 434.301 316.923C434.628 317.302 434.811 317.816 434.812 318.352V351.714C434.811 352.25 434.628 352.764 434.301 353.143C433.974 353.522 433.531 353.736 433.069 353.736V353.736ZM391.245 318.352V351.714H433.07L433.069 318.352H391.245Z" fill="#0E3B43"/>
<path d="M428.453 317.143H426.691C426.691 312.719 425.16 308.476 422.434 305.347C419.709 302.219 416.012 300.462 412.157 300.462C408.303 300.462 404.606 302.219 401.88 305.347C399.155 308.476 397.623 312.719 397.623 317.143H395.862C395.862 312.182 397.578 307.425 400.634 303.918C403.69 300.41 407.835 298.44 412.157 298.44C416.479 298.44 420.624 300.41 423.68 303.918C426.736 307.425 428.453 312.182 428.453 317.143V317.143Z" fill="#0E3B43"/>
<path d="M416.529 331.278C416.53 330.375 416.332 329.488 415.955 328.704C415.578 327.919 415.034 327.266 414.379 326.807C413.723 326.348 412.978 326.101 412.216 326.088C411.455 326.076 410.705 326.3 410.039 326.737C409.373 327.175 408.815 327.811 408.42 328.582C408.025 329.354 407.806 330.235 407.787 331.137C407.767 332.039 407.946 332.932 408.307 333.727C408.667 334.522 409.197 335.192 409.843 335.67V341.234C409.843 341.594 409.903 341.951 410.019 342.284C410.135 342.617 410.306 342.919 410.521 343.174C410.736 343.429 410.991 343.631 411.272 343.769C411.552 343.907 411.853 343.978 412.157 343.978V343.978C412.771 343.978 413.36 343.689 413.794 343.174C414.228 342.66 414.472 341.962 414.472 341.234V335.67C415.101 335.205 415.62 334.558 415.98 333.79C416.34 333.021 416.529 332.157 416.529 331.278V331.278Z" fill="#3F3D56"/>
<path d="M634.333 24.3956H590.613V60.1758H634.333V24.3956Z" fill="#84A59D"/>
<path d="M638.949 56.9231H597.125C596.663 56.9225 596.22 56.7093 595.893 56.3302C595.567 55.9511 595.383 55.4372 595.382 54.9011V21.5385C595.383 21.0024 595.567 20.4884 595.893 20.1093C596.22 19.7303 596.663 19.5171 597.125 19.5165H638.949C639.411 19.517 639.854 19.7302 640.181 20.1093C640.507 20.4884 640.691 21.0024 640.692 21.5385V54.9011C640.691 55.4372 640.507 55.9511 640.181 56.3302C639.854 56.7093 639.411 56.9225 638.949 56.9231V56.9231ZM597.125 21.5385V54.9011H638.95L638.949 21.5385H597.125Z" fill="#0E3B43"/>
<path d="M634.333 20.3297H632.571C632.571 15.9055 631.04 11.6626 628.314 8.53422C625.588 5.40587 621.892 3.64838 618.037 3.64838C614.182 3.64838 610.486 5.40587 607.76 8.53422C605.034 11.6626 603.503 15.9055 603.503 20.3297H601.742C601.742 15.3693 603.458 10.612 606.514 7.10447C609.57 3.59692 613.715 1.6264 618.037 1.6264C622.359 1.6264 626.504 3.59692 629.56 7.10447C632.616 10.612 634.333 15.3693 634.333 20.3297V20.3297Z" fill="#0E3B43"/>
<path d="M622.409 34.4646C622.41 33.5619 622.212 32.6746 621.835 31.8905C621.458 31.1063 620.914 30.4526 620.259 29.9939C619.603 29.5352 618.858 29.2874 618.096 29.2752C617.335 29.2629 616.584 29.4866 615.918 29.924C615.252 30.3615 614.694 30.9975 614.299 31.7692C613.904 32.5409 613.686 33.4215 613.667 34.3239C613.647 35.2263 613.826 36.1192 614.187 36.9141C614.547 37.7091 615.077 38.3787 615.723 38.8566V44.4205C615.723 44.7809 615.782 45.1377 615.899 45.4707C616.015 45.8037 616.186 46.1062 616.4 46.361C616.615 46.6159 616.871 46.818 617.151 46.9559C617.432 47.0938 617.733 47.1648 618.037 47.1648V47.1648C618.651 47.1648 619.24 46.8757 619.674 46.361C620.108 45.8464 620.352 45.1483 620.352 44.4205V38.8566C620.981 38.3919 621.5 37.7449 621.86 36.9764C622.22 36.208 622.409 35.3436 622.409 34.4646V34.4646Z" fill="#3F3D56"/>
<path d="M202.7 290.308H158.981V326.088H202.7V290.308Z" fill="#84A59D"/>
<path d="M207.317 322.835H165.493C165.031 322.835 164.588 322.621 164.261 322.242C163.934 321.863 163.75 321.349 163.75 320.813V287.451C163.75 286.914 163.934 286.401 164.261 286.021C164.588 285.642 165.031 285.429 165.493 285.429H207.317C207.779 285.429 208.222 285.642 208.549 286.021C208.875 286.4 209.059 286.914 209.059 287.451V320.813C209.059 321.349 208.875 321.863 208.549 322.242C208.222 322.621 207.779 322.835 207.317 322.835V322.835ZM165.493 287.451V320.813H207.318L207.317 287.451H165.493Z" fill="#0E3B43"/>
<path d="M202.7 286.242H200.939C200.939 281.818 199.407 277.575 196.682 274.446C193.956 271.318 190.259 269.56 186.405 269.56C182.55 269.56 178.853 271.318 176.128 274.446C173.402 277.575 171.871 281.818 171.871 286.242H170.109C170.109 281.281 171.826 276.524 174.882 273.017C177.938 269.509 182.083 267.538 186.405 267.538C190.727 267.538 194.871 269.509 197.927 273.017C200.983 276.524 202.7 281.281 202.7 286.242V286.242Z" fill="#0E3B43"/>
<path d="M190.777 300.377C190.778 299.474 190.58 298.587 190.202 297.803C189.825 297.018 189.282 296.365 188.626 295.906C187.971 295.447 187.225 295.2 186.464 295.187C185.703 295.175 184.952 295.399 184.286 295.836C183.62 296.274 183.062 296.91 182.667 297.681C182.272 298.453 182.054 299.334 182.034 300.236C182.014 301.138 182.194 302.031 182.554 302.826C182.915 303.621 183.444 304.291 184.09 304.769V310.333C184.09 310.693 184.15 311.05 184.267 311.383C184.383 311.716 184.553 312.018 184.768 312.273C184.983 312.528 185.238 312.73 185.519 312.868C185.8 313.006 186.101 313.077 186.405 313.077V313.077C187.019 313.077 187.607 312.788 188.041 312.273C188.475 311.758 188.719 311.06 188.719 310.333V304.769C189.349 304.304 189.868 303.657 190.228 302.889C190.588 302.12 190.777 301.256 190.777 300.377V300.377Z" fill="#3F3D56"/>
<path d="M178.764 421.395H169.241V422.893H178.764V421.395Z" fill="#3F3D56"/>
<path d="M191.858 421.395H182.335V422.893H191.858V421.395Z" fill="#3F3D56"/>
<path d="M204.952 421.395H195.429V422.893H204.952V421.395Z" fill="#3F3D56"/>
<path d="M218.046 421.395H208.523V422.893H218.046V421.395Z" fill="#3F3D56"/>
<path d="M231.14 421.395H221.617V422.893H231.14V421.395Z" fill="#3F3D56"/>
<path d="M353.45 505.269H74.3096C73.6784 505.268 73.0732 504.953 72.6269 504.391C72.1805 503.829 71.9295 503.068 71.9288 502.274V331.531C71.9295 330.737 72.1805 329.975 72.6269 329.414C73.0732 328.852 73.6784 328.536 74.3096 328.535H353.45C354.082 328.536 354.687 328.852 355.133 329.414C355.58 329.975 355.831 330.737 355.831 331.531V502.274C355.831 503.068 355.58 503.829 355.133 504.391C354.687 504.953 354.082 505.268 353.45 505.269V505.269ZM74.3096 331.531V502.274H353.452L353.45 331.531H74.3096Z" fill="#0E3B43"/>
<path d="M86.8082 356.992C88.7805 356.992 90.3793 354.981 90.3793 352.499C90.3793 350.018 88.7805 348.006 86.8082 348.006C84.836 348.006 83.2371 350.018 83.2371 352.499C83.2371 354.981 84.836 356.992 86.8082 356.992Z" fill="#0E3B43"/>
<path d="M99.3071 356.992C101.279 356.992 102.878 354.981 102.878 352.499C102.878 350.018 101.279 348.006 99.3071 348.006C97.3349 348.006 95.736 350.018 95.736 352.499C95.736 354.981 97.3349 356.992 99.3071 356.992Z" fill="#0E3B43"/>
<path d="M413.35 74H369.63V109.78H413.35V74Z" fill="#84A59D"/>
<path d="M417.966 106.527H376.142C375.68 106.527 375.237 106.314 374.91 105.935C374.584 105.556 374.4 105.042 374.399 104.505V71.1428C374.4 70.6067 374.584 70.0928 374.91 69.7137C375.237 69.3346 375.68 69.1214 376.142 69.1208H417.966C418.428 69.1214 418.871 69.3346 419.198 69.7137C419.525 70.0928 419.708 70.6067 419.709 71.1428V104.505C419.708 105.042 419.525 105.556 419.198 105.935C418.871 106.314 418.428 106.527 417.966 106.527V106.527ZM376.142 71.1428V104.505H417.967L417.966 71.1428H376.142Z" fill="#0E3B43"/>
<path d="M413.35 69.9341H411.588C411.588 65.5099 410.057 61.2669 407.331 58.1386C404.605 55.0102 400.909 53.2528 397.054 53.2528C393.199 53.2528 389.503 55.0102 386.777 58.1386C384.051 61.2669 382.52 65.5099 382.52 69.9341H380.759C380.759 64.9736 382.475 60.2164 385.531 56.7088C388.587 53.2013 392.732 51.2308 397.054 51.2308C401.376 51.2308 405.521 53.2013 408.577 56.7088C411.633 60.2164 413.35 64.9736 413.35 69.9341V69.9341Z" fill="#0E3B43"/>
<path d="M401.426 84.069C401.427 83.1663 401.229 82.279 400.852 81.4949C400.475 80.7108 399.931 80.057 399.276 79.5983C398.62 79.1396 397.875 78.8919 397.113 78.8796C396.352 78.8674 395.601 79.091 394.935 79.5285C394.269 79.9659 393.711 80.6019 393.316 81.3736C392.921 82.1453 392.703 83.026 392.684 83.9283C392.664 84.8307 392.843 85.7236 393.204 86.5186C393.564 87.3136 394.094 87.9831 394.74 88.461V94.0249C394.74 94.3853 394.799 94.7422 394.916 95.0751C395.032 95.4081 395.203 95.7106 395.417 95.9655C395.632 96.2203 395.888 96.4224 396.168 96.5604C396.449 96.6983 396.75 96.7693 397.054 96.7693V96.7693C397.668 96.7693 398.257 96.4801 398.691 95.9655C399.125 95.4508 399.369 94.7528 399.369 94.0249V88.461C399.998 87.9963 400.517 87.3493 400.877 86.5809C401.237 85.8125 401.426 84.948 401.426 84.069V84.069Z" fill="#3F3D56"/>
<path d="M111.806 356.992C113.778 356.992 115.377 354.981 115.377 352.499C115.377 350.018 113.778 348.006 111.806 348.006C109.834 348.006 108.235 350.018 108.235 352.499C108.235 354.981 109.834 356.992 111.806 356.992Z" fill="#0E3B43"/>
<path d="M240.366 431.88H160.016C159.542 431.879 159.089 431.642 158.754 431.221C158.419 430.8 158.231 430.229 158.23 429.633V404.171C158.231 403.576 158.419 403.005 158.754 402.584C159.089 402.162 159.542 401.925 160.016 401.925H240.366C240.839 401.925 241.293 402.162 241.628 402.584C241.962 403.005 242.151 403.576 242.151 404.171V429.633C242.151 430.229 241.962 430.8 241.628 431.221C241.293 431.642 240.839 431.879 240.366 431.88V431.88ZM160.016 403.423C159.858 403.423 159.707 403.502 159.595 403.642C159.484 403.782 159.421 403.973 159.421 404.171V429.633C159.421 429.832 159.484 430.022 159.595 430.162C159.707 430.303 159.858 430.382 160.016 430.382H240.366C240.524 430.382 240.675 430.303 240.786 430.162C240.898 430.022 240.961 429.832 240.961 429.633V404.171C240.961 403.973 240.898 403.782 240.786 403.642C240.675 403.502 240.524 403.423 240.366 403.423H160.016Z" fill="#3F3D56"/>
<path d="M260.602 432.629C266.519 432.629 271.315 426.594 271.315 419.149C271.315 411.704 266.519 405.669 260.602 405.669C254.685 405.669 249.889 411.704 249.889 419.149C249.889 426.594 254.685 432.629 260.602 432.629Z" fill="#84A59D"/>
<path d="M264.173 431.131C261.936 431.131 259.75 430.296 257.89 428.733C256.031 427.169 254.581 424.947 253.725 422.347C252.869 419.747 252.645 416.886 253.082 414.126C253.518 411.366 254.595 408.831 256.177 406.841C257.758 404.851 259.773 403.496 261.967 402.947C264.16 402.398 266.434 402.68 268.501 403.757C270.567 404.834 272.333 406.657 273.576 408.997C274.818 411.337 275.481 414.088 275.481 416.902C275.478 420.675 274.286 424.291 272.166 426.959C270.046 429.626 267.171 431.126 264.173 431.131V431.131ZM264.173 404.171C262.172 404.171 260.216 404.918 258.552 406.317C256.888 407.716 255.591 409.704 254.825 412.03C254.059 414.357 253.859 416.916 254.249 419.386C254.64 421.855 255.603 424.124 257.018 425.904C258.433 427.685 260.236 428.897 262.199 429.388C264.162 429.88 266.196 429.628 268.045 428.664C269.894 427.7 271.474 426.069 272.586 423.975C273.698 421.882 274.291 419.42 274.291 416.902C274.288 413.527 273.221 410.291 271.324 407.904C269.427 405.518 266.856 404.175 264.173 404.171V404.171Z" fill="#3F3D56"/>
<path d="M264.332 422.216L258.57 414.966L260.253 412.848L264.014 417.579L274.508 398.816L276.455 400.54L264.332 422.216Z" fill="#3F3D56"/>
<path opacity="0.1" d="M258.167 235.398H24.1591V38.1528L258.167 235.398Z" fill="black"/>
<path d="M344.58 231.515H315.236V228.855C315.236 228.786 315.226 228.717 315.204 228.653C315.183 228.589 315.153 228.531 315.114 228.482C315.075 228.433 315.028 228.394 314.978 228.368C314.927 228.341 314.872 228.328 314.817 228.328H304.756C304.701 228.328 304.647 228.341 304.596 228.368C304.545 228.394 304.499 228.433 304.46 228.482C304.421 228.531 304.39 228.589 304.369 228.653C304.348 228.717 304.337 228.786 304.337 228.855V231.515H298.049V228.855C298.049 228.786 298.038 228.717 298.017 228.653C297.996 228.589 297.965 228.531 297.927 228.482C297.888 228.433 297.841 228.394 297.791 228.368C297.74 228.341 297.685 228.328 297.63 228.328H287.569C287.514 228.328 287.46 228.341 287.409 228.368C287.358 228.394 287.312 228.433 287.273 228.482C287.234 228.531 287.203 228.589 287.182 228.653C287.161 228.717 287.15 228.786 287.15 228.855V231.515H280.862V228.855C280.862 228.786 280.851 228.717 280.83 228.653C280.809 228.589 280.778 228.531 280.739 228.482C280.701 228.433 280.654 228.394 280.603 228.368C280.553 228.341 280.498 228.328 280.443 228.328H270.382C270.327 228.328 270.273 228.341 270.222 228.368C270.171 228.394 270.125 228.433 270.086 228.482C270.047 228.531 270.016 228.589 269.995 228.653C269.974 228.717 269.963 228.786 269.963 228.855V231.515H263.675V228.855C263.675 228.786 263.664 228.717 263.643 228.653C263.622 228.589 263.591 228.531 263.552 228.482C263.513 228.433 263.467 228.394 263.416 228.368C263.366 228.341 263.311 228.328 263.256 228.328H253.195C253.14 228.328 253.086 228.341 253.035 228.368C252.984 228.394 252.938 228.433 252.899 228.482C252.86 228.531 252.829 228.589 252.808 228.653C252.787 228.717 252.776 228.786 252.776 228.855V231.515H246.488V228.855C246.488 228.786 246.477 228.717 246.456 228.653C246.435 228.589 246.404 228.531 246.365 228.482C246.326 228.433 246.28 228.394 246.229 228.368C246.178 228.341 246.124 228.328 246.069 228.328H236.008C235.953 228.328 235.899 228.341 235.848 228.368C235.797 228.394 235.751 228.433 235.712 228.482C235.673 228.531 235.642 228.589 235.621 228.653C235.6 228.717 235.589 228.786 235.589 228.855V231.515H229.301V228.855C229.301 228.786 229.29 228.717 229.269 228.653C229.248 228.589 229.217 228.531 229.178 228.482C229.139 228.433 229.093 228.394 229.042 228.368C228.991 228.341 228.937 228.328 228.882 228.328H218.821C218.766 228.328 218.711 228.341 218.661 228.368C218.61 228.394 218.564 228.433 218.525 228.482C218.486 228.531 218.455 228.589 218.434 228.653C218.413 228.717 218.402 228.786 218.402 228.855V231.515H212.114V228.855C212.114 228.786 212.103 228.717 212.082 228.653C212.061 228.589 212.03 228.531 211.991 228.482C211.952 228.433 211.906 228.394 211.855 228.368C211.804 228.341 211.75 228.328 211.695 228.328H132.886C132.831 228.328 132.776 228.341 132.725 228.368C132.674 228.394 132.628 228.433 132.589 228.482C132.55 228.531 132.519 228.589 132.498 228.653C132.477 228.717 132.466 228.786 132.466 228.855V231.515H126.178V228.855C126.178 228.786 126.168 228.717 126.146 228.653C126.125 228.589 126.095 228.531 126.056 228.482C126.017 228.433 125.97 228.394 125.92 228.368C125.869 228.341 125.814 228.328 125.759 228.328H115.698C115.643 228.328 115.589 228.341 115.538 228.368C115.487 228.394 115.441 228.433 115.402 228.482C115.363 228.531 115.332 228.589 115.311 228.653C115.29 228.717 115.279 228.786 115.279 228.855V231.515H108.991V228.855C108.991 228.786 108.98 228.717 108.959 228.653C108.938 228.589 108.907 228.531 108.869 228.482C108.83 228.433 108.783 228.394 108.733 228.368C108.682 228.341 108.627 228.328 108.572 228.328H98.5114C98.4563 228.328 98.4018 228.341 98.351 228.368C98.3001 228.394 98.2539 228.433 98.215 228.482C98.176 228.531 98.1452 228.589 98.1241 228.653C98.103 228.717 98.0922 228.786 98.0922 228.855V231.515H91.8042V228.855C91.8042 228.786 91.7934 228.717 91.7723 228.653C91.7513 228.589 91.7204 228.531 91.6814 228.482C91.6425 228.433 91.5963 228.394 91.5454 228.368C91.4946 228.341 91.4401 228.328 91.385 228.328H81.3243C81.2692 228.328 81.2147 228.341 81.1639 228.368C81.113 228.394 81.0668 228.433 81.0279 228.482C80.989 228.531 80.9581 228.589 80.937 228.653C80.9159 228.717 80.9051 228.786 80.9051 228.855V231.515H74.6171V228.855C74.6171 228.786 74.6063 228.717 74.5852 228.653C74.5642 228.589 74.5333 228.531 74.4944 228.482C74.4554 228.433 74.4092 228.394 74.3584 228.368C74.3075 228.341 74.253 228.328 74.1979 228.328H64.1372C64.0821 228.328 64.0276 228.341 63.9768 228.368C63.9259 228.394 63.8797 228.433 63.8408 228.482C63.8018 228.531 63.771 228.589 63.7499 228.653C63.7288 228.717 63.718 228.786 63.718 228.855V231.515H57.4301V228.855C57.4301 228.786 57.4192 228.717 57.3982 228.653C57.3771 228.589 57.3462 228.531 57.3073 228.482C57.2684 228.433 57.2221 228.394 57.1713 228.368C57.1204 228.341 57.0659 228.328 57.0109 228.328H46.9501C46.8951 228.328 46.8405 228.341 46.7897 228.368C46.7388 228.394 46.6926 228.433 46.6537 228.482C46.6148 228.531 46.5839 228.589 46.5628 228.653C46.5417 228.717 46.5309 228.786 46.5309 228.855V231.515H40.2429V228.855C40.2429 228.786 40.2321 228.717 40.211 228.653C40.19 228.589 40.1591 228.531 40.1202 228.482C40.0812 228.433 40.035 228.394 39.9842 228.368C39.9333 228.341 39.8788 228.328 39.8237 228.328H29.763C29.708 228.328 29.6535 228.341 29.6026 228.368C29.5517 228.394 29.5055 228.433 29.4666 228.482C29.4277 228.531 29.3968 228.589 29.3757 228.653C29.3547 228.717 29.3438 228.786 29.3438 228.855V231.515H10.0607C8.73954 231.515 7.43128 231.843 6.21066 232.479C4.99003 233.115 3.88094 234.047 2.94672 235.223C2.01249 236.398 1.27142 237.794 0.765826 239.33C0.260227 240.865 -7.81605e-07 242.512 0 244.174V249.898C6.31409e-06 253.255 1.05998 256.475 2.94673 258.849C4.83348 261.223 7.39247 262.556 10.0607 262.556H344.58C345.901 262.556 347.21 262.229 348.43 261.593C349.651 260.957 350.76 260.024 351.694 258.849C352.628 257.673 353.37 256.278 353.875 254.742C354.381 253.206 354.641 251.56 354.641 249.898V244.174C354.641 242.512 354.381 240.865 353.875 239.33C353.37 237.794 352.628 236.398 351.694 235.223C350.76 234.047 349.651 233.115 348.43 232.479C347.21 231.843 345.901 231.515 344.58 231.515V231.515Z" fill="#0E3B43"/>
<path d="M252.865 163.035H95.7361C95.2627 163.034 94.8089 162.797 94.4741 162.376C94.1394 161.955 93.9511 161.384 93.9506 160.788V78.412C93.9511 77.8164 94.1394 77.2453 94.4741 76.8241C94.8089 76.403 95.2627 76.1661 95.7361 76.1654H252.865C253.338 76.1661 253.792 76.403 254.127 76.8241C254.461 77.2453 254.65 77.8164 254.65 78.412V160.788C254.65 161.384 254.461 161.955 254.127 162.376C253.792 162.797 253.338 163.034 252.865 163.035V163.035ZM95.7361 77.6631C95.5783 77.6634 95.4271 77.7424 95.3155 77.8828C95.2039 78.0232 95.1411 78.2135 95.1409 78.412V160.788C95.1411 160.987 95.2039 161.177 95.3155 161.317C95.4271 161.458 95.5783 161.537 95.7361 161.537H252.865C253.022 161.537 253.174 161.458 253.285 161.317C253.397 161.177 253.46 160.987 253.46 160.788V78.412C253.46 78.2135 253.397 78.0232 253.285 77.8828C253.174 77.7424 253.022 77.6634 252.865 77.6631H95.7361Z" fill="#3F3D56"/>
<path d="M113.592 124.093H106.449C105.976 124.093 105.522 123.856 105.187 123.435C104.853 123.013 104.664 122.442 104.664 121.847V112.86C104.664 112.265 104.853 111.694 105.187 111.272C105.522 110.851 105.976 110.614 106.449 110.614H113.592C114.065 110.614 114.519 110.851 114.854 111.272C115.188 111.694 115.377 112.265 115.377 112.86V121.847C115.377 122.442 115.188 123.013 114.854 123.435C114.519 123.856 114.065 124.093 113.592 124.093V124.093ZM106.449 112.111C106.292 112.112 106.14 112.191 106.029 112.331C105.917 112.471 105.854 112.662 105.854 112.86V121.847C105.854 122.045 105.917 122.236 106.029 122.376C106.14 122.516 106.292 122.595 106.449 122.596H113.592C113.749 122.595 113.901 122.516 114.012 122.376C114.124 122.236 114.187 122.045 114.187 121.847V112.86C114.187 112.662 114.124 112.471 114.012 112.331C113.901 112.191 113.749 112.112 113.592 112.111H106.449Z" fill="#3F3D56"/>
<path d="M240.961 122.596H105.259V124.093H240.961V122.596Z" fill="#3F3D56"/>
<path d="M286.043 180.056L513.125 67.2865L512.452 65.8681L285.37 178.637L286.043 180.056Z" fill="#0E3B43"/>
<path d="M284.178 187.846C288.787 187.846 292.524 184.205 292.524 179.714C292.524 175.223 288.787 171.582 284.178 171.582C279.568 171.582 275.831 175.223 275.831 179.714C275.831 184.205 279.568 187.846 284.178 187.846Z" fill="#0E3B43"/>
<path d="M513.11 74C517.28 74 520.661 70.3592 520.661 65.8681C520.661 61.377 517.28 57.7363 513.11 57.7363C508.939 57.7363 505.558 61.377 505.558 65.8681C505.558 70.3592 508.939 74 513.11 74Z" fill="#0E3B43"/>
<path d="M520.264 247.209C524.435 247.209 527.816 243.932 527.816 239.89C527.816 235.848 524.435 232.571 520.264 232.571C516.093 232.571 512.712 235.848 512.712 239.89C512.712 243.932 516.093 247.209 520.264 247.209Z" fill="#0E3B43"/>
<path d="M284.575 458.637C288.965 458.637 292.524 455.361 292.524 451.319C292.524 447.277 288.965 444 284.575 444C280.185 444 276.626 447.277 276.626 451.319C276.626 455.361 280.185 458.637 284.575 458.637Z" fill="#0E3B43"/>
</g>
<defs>
<clipPath id="clip0">
<rect width="655" height="518" fill="white"/>
</clipPath>
</defs>
</svg>
