<svg width="963" height="717" viewBox="0 0 963 717" fill="none" xmlns="http://www.w3.org/2000/svg">
<rect width="963" height="717" fill="#E5E5E5"/>
<path d="M442.902 142.768H29V383.251H442.902V142.768Z" fill="#F5CAC3"/>
<path opacity="0.1" d="M337.676 383.251H30.7502C30.2865 383.25 29.8421 383.031 29.5142 382.642C29.1863 382.254 29.0015 381.727 29.0001 381.178V144.841C29.0015 144.292 29.1863 143.765 29.5142 143.377C29.8421 142.988 30.2865 142.769 30.7502 142.768H34.6355L337.676 383.251Z" fill="black"/>
<path d="M410.902 296.768H346.625V346.294H410.902V296.768Z" fill="#84A59D"/>
<path d="M417.69 341.791H356.199C355.52 341.79 354.868 341.495 354.388 340.971C353.908 340.446 353.637 339.735 353.637 338.993V292.813C353.637 292.071 353.908 291.36 354.388 290.835C354.868 290.31 355.52 290.015 356.199 290.014H417.69C418.369 290.015 419.02 290.31 419.501 290.835C419.981 291.36 420.251 292.071 420.252 292.813V338.993C420.251 339.735 419.981 340.446 419.501 340.971C419.02 341.495 418.369 341.79 417.69 341.791V341.791ZM356.199 292.813V338.993H417.692L417.69 292.813H356.199Z" fill="#0E3B43"/>
<path d="M410.903 291.14H408.312C408.312 285.016 406.061 279.143 402.054 274.813C398.047 270.483 392.612 268.05 386.944 268.05C381.277 268.05 375.842 270.483 371.835 274.813C367.828 279.143 365.576 285.016 365.576 291.14H362.986C362.986 284.274 365.51 277.689 370.003 272.834C374.496 267.979 380.59 265.251 386.944 265.251C393.298 265.251 399.392 267.979 403.885 272.834C408.378 277.689 410.903 284.274 410.903 291.14V291.14Z" fill="#0E3B43"/>
<path d="M393.372 310.705C393.373 309.455 393.082 308.227 392.528 307.142C391.973 306.057 391.175 305.152 390.211 304.517C389.247 303.882 388.151 303.539 387.032 303.522C385.912 303.505 384.809 303.815 383.83 304.42C382.85 305.026 382.03 305.906 381.449 306.974C380.869 308.042 380.548 309.261 380.519 310.51C380.49 311.759 380.753 312.995 381.283 314.096C381.814 315.196 382.592 316.123 383.542 316.784V324.486C383.542 324.984 383.63 325.478 383.801 325.939C383.972 326.4 384.222 326.819 384.538 327.172C384.854 327.524 385.229 327.804 385.642 327.995C386.055 328.186 386.498 328.284 386.945 328.284V328.284C387.847 328.284 388.713 327.884 389.351 327.172C389.989 326.459 390.347 325.493 390.347 324.486V316.784C391.273 316.141 392.036 315.245 392.565 314.182C393.094 313.118 393.372 311.922 393.372 310.705V310.705Z" fill="#3F3D56"/>
<path d="M204.449 249.534H190.448V251.607H204.449V249.534Z" fill="#3F3D56"/>
<path d="M223.7 249.534H209.699V251.607H223.7V249.534Z" fill="#3F3D56"/>
<path d="M242.951 249.534H228.95V251.607H242.951V249.534Z" fill="#3F3D56"/>
<path d="M262.203 249.534H248.202V251.607H262.203V249.534Z" fill="#3F3D56"/>
<path d="M281.454 249.534H267.453V251.607H281.454V249.534Z" fill="#3F3D56"/>
<path d="M461.278 365.63H50.8766C49.9486 365.628 49.0589 365.191 48.4027 364.414C47.7465 363.637 47.3774 362.583 47.3764 361.483V125.146C47.3774 124.047 47.7465 122.993 48.4027 122.216C49.0589 121.438 49.9486 121.001 50.8766 121H461.278C462.206 121.001 463.095 121.438 463.752 122.216C464.408 122.993 464.777 124.047 464.778 125.146V361.483C464.777 362.583 464.408 363.637 463.752 364.414C463.095 365.191 462.206 365.629 461.278 365.63V365.63ZM50.8766 125.146V361.483H461.28L461.278 125.146H50.8766Z" fill="#0E3B43"/>
<path d="M69.2526 160.389C72.1523 160.389 74.503 157.605 74.503 154.17C74.503 150.735 72.1523 147.951 69.2526 147.951C66.3529 147.951 64.0023 150.735 64.0023 154.17C64.0023 157.605 66.3529 160.389 69.2526 160.389Z" fill="#0E3B43"/>
<path d="M87.6288 160.389C90.5285 160.389 92.8791 157.605 92.8791 154.17C92.8791 150.735 90.5285 147.951 87.6288 147.951C84.7291 147.951 82.3785 150.735 82.3785 154.17C82.3785 157.605 84.7291 160.389 87.6288 160.389Z" fill="#0E3B43"/>
<path d="M106.005 160.389C108.905 160.389 111.255 157.605 111.255 154.17C111.255 150.735 108.905 147.951 106.005 147.951C103.105 147.951 100.755 150.735 100.755 154.17C100.755 157.605 103.105 160.389 106.005 160.389Z" fill="#0E3B43"/>
<path d="M295.017 264.046H176.885C176.189 264.045 175.521 263.717 175.029 263.134C174.537 262.551 174.26 261.761 174.259 260.936V225.693C174.26 224.869 174.537 224.078 175.029 223.495C175.521 222.912 176.189 222.584 176.885 222.583H295.017C295.713 222.584 296.381 222.912 296.873 223.495C297.365 224.078 297.642 224.869 297.642 225.693V260.936C297.642 261.761 297.365 262.551 296.873 263.134C296.381 263.717 295.713 264.045 295.017 264.046V264.046ZM176.885 224.657C176.653 224.657 176.43 224.766 176.266 224.961C176.102 225.155 176.01 225.418 176.01 225.693V260.936C176.01 261.211 176.102 261.475 176.266 261.669C176.43 261.863 176.653 261.973 176.885 261.973H295.017C295.249 261.973 295.472 261.863 295.636 261.669C295.8 261.475 295.892 261.211 295.892 260.936V225.693C295.892 225.418 295.8 225.155 295.636 224.961C295.472 224.766 295.249 224.657 295.017 224.657H176.885Z" fill="#3F3D56"/>
<path d="M324.769 265.083C333.468 265.083 340.52 256.729 340.52 246.425C340.52 236.12 333.468 227.766 324.769 227.766C316.07 227.766 309.018 236.12 309.018 246.425C309.018 256.729 316.07 265.083 324.769 265.083Z" fill="#84A59D"/>
<path d="M330.019 263.009C326.731 263.009 323.517 261.854 320.782 259.69C318.048 257.526 315.917 254.45 314.659 250.852C313.401 247.253 313.071 243.293 313.713 239.472C314.354 235.652 315.938 232.143 318.263 229.388C320.588 226.634 323.551 224.758 326.776 223.998C330.001 223.239 333.344 223.629 336.382 225.119C339.42 226.61 342.017 229.134 343.843 232.373C345.67 235.612 346.645 239.419 346.645 243.315C346.64 248.536 344.887 253.542 341.77 257.234C338.653 260.927 334.427 263.004 330.019 263.009V263.009ZM330.019 225.693C327.077 225.693 324.201 226.727 321.755 228.663C319.308 230.599 317.402 233.351 316.276 236.571C315.15 239.791 314.855 243.334 315.429 246.753C316.003 250.171 317.42 253.311 319.5 255.775C321.581 258.24 324.232 259.918 327.117 260.598C330.003 261.278 332.994 260.929 335.712 259.595C338.43 258.261 340.754 256.003 342.388 253.105C344.023 250.207 344.895 246.8 344.895 243.315C344.891 238.643 343.322 234.164 340.533 230.86C337.745 227.557 333.963 225.698 330.019 225.693V225.693Z" fill="#3F3D56"/>
<path d="M330.253 250.67L321.781 240.634L324.256 237.703L329.786 244.252L345.215 218.28L348.077 220.667L330.253 250.67Z" fill="#3F3D56"/>
</svg>
