<svg width="888" height="445" viewBox="0 0 888 445" fill="none" xmlns="http://www.w3.org/2000/svg">
<rect width="888" height="445" fill="#E5E5E5"/>
<g clip-path="url(#clip0)">
<path d="M412.711 406.048L422.068 403.351C423.728 399.052 425.144 394.663 426.31 390.204L421.916 390.044L426.707 388.663C428.094 383.136 428.662 379.387 428.662 379.387C428.662 379.387 409.686 385.039 395.396 396.068L393.633 408.438L391.946 398.927C390.391 400.307 388.924 401.784 387.555 403.348C373.797 419.165 367.81 436.48 374.183 442.023C380.555 447.565 396.873 439.236 410.631 423.419C414.888 418.283 418.333 412.524 420.846 406.344L412.711 406.048Z" fill="#E6E6E6"/>
<path d="M58.2346 349.692L52.9016 328.658C43.4454 324.65 33.7707 321.179 23.9236 318.261L23.2503 328.037L20.5198 317.267C8.30782 313.78 0 312.244 0 312.244C0 312.244 11.222 354.918 34.7592 387.542L62.1852 392.36L40.8787 395.432C43.8407 398.995 47.0239 402.368 50.4094 405.532C84.6494 437.314 122.786 451.896 135.591 438.101C148.395 424.307 131.018 387.36 96.7779 355.577C86.1631 345.725 72.8287 337.818 59.4811 331.595L58.2346 349.692Z" fill="#E6E6E6"/>
<path d="M108.955 326.849L115.263 306.086C109.239 297.768 102.752 289.796 95.8302 282.208L90.2008 290.228L93.4303 279.597C84.7788 270.3 78.4609 264.691 78.4609 264.691C78.4609 264.691 66.0093 307.022 69.2946 347.116L90.2823 365.417L70.455 357.033C71.1488 361.615 72.1301 366.148 73.393 370.606C86.2758 415.512 111.385 447.707 129.477 442.517C147.568 437.327 151.791 396.716 138.908 351.811C134.914 337.889 127.586 324.228 119.377 312.002L108.955 326.849Z" fill="#E6E6E6"/>
<path d="M194.275 413.765L196.478 423.676L211.894 422.574L210.793 411.563L194.275 413.765Z" fill="#FFB8B8"/>
<path d="M155.735 413.765L153.533 423.676L138.116 422.574L139.218 411.563L155.735 413.765Z" fill="#FFB8B8"/>
<path d="M151.33 92.2284C162.885 92.2284 172.252 82.8613 172.252 71.3065C172.252 59.7516 162.885 50.3846 151.33 50.3846C139.775 50.3846 130.408 59.7516 130.408 71.3065C130.408 82.8613 139.775 92.2284 151.33 92.2284Z" fill="#FFB8B8"/>
<path d="M138.116 76.812L132.611 102.139L160.139 110.948L159.038 79.015L138.116 76.812Z" fill="#FFB8B8"/>
<path d="M148.027 105.442L134.173 94.9531C134.173 94.9531 131.509 91.1272 130.408 94.4307C129.307 97.7342 119.397 109.847 119.397 109.847L127.105 200.141L185.466 201.243C185.466 201.243 162.661 95.9837 159.749 99.6119C156.836 103.24 149.128 103.24 148.027 105.442Z" fill="#D0CDE1"/>
<path d="M159.589 92.779C159.589 92.779 155.184 97.1836 157.387 100.487C159.589 103.79 157.937 109.916 160.139 110.432C162.342 110.948 157.937 148.387 164.544 158.298C171.151 168.208 167.848 193.535 167.848 197.939C167.848 202.344 174.454 228.771 174.454 228.771C174.454 228.771 196.478 230.974 196.478 225.468C196.478 219.962 188.769 181.422 188.769 181.422L195.376 113.15C195.376 113.15 195.376 106.543 187.668 104.341C179.96 102.139 164.544 96.633 164.544 96.633L159.589 92.779Z" fill="#2F2E41"/>
<path d="M190.972 172.613H185.466C185.466 172.613 156.836 174.815 159.038 162.702C161.241 150.59 183.264 159.399 183.264 159.399L189.871 162.702L190.972 172.613Z" fill="#FFB8B8"/>
<path d="M135.048 90.9272C135.048 90.9272 126.004 96.633 124.903 98.8353C123.801 101.038 98.4749 113.15 98.4749 121.96C98.4749 130.769 106.183 140.679 106.183 140.679L116.093 237.581C116.093 237.581 132.611 243.086 133.712 238.682C134.813 234.277 139.218 137.376 137.015 132.971C134.813 128.566 134.813 99.9365 134.813 99.9365L135.048 90.9272Z" fill="#2F2E41"/>
<path d="M106.183 250.794L105.082 257.401C105.082 257.401 106.183 279.424 114.992 278.323C123.801 277.222 118.296 255.199 118.296 255.199L117.195 250.794H106.183Z" fill="#FFB8B8"/>
<path d="M119.397 194.636C119.397 194.636 120.498 293.739 126.004 325.673C131.509 357.606 133.712 412.664 133.712 412.664C133.712 412.664 148.027 414.866 150.229 415.967C152.431 417.069 157.937 413.765 157.937 413.765L159.038 250.794L179.96 324.572C179.96 324.572 183.264 413.765 189.871 415.967C196.478 418.17 216.298 413.765 216.298 413.765C216.298 413.765 208.59 328.976 206.388 325.673C204.186 322.369 198.68 225.468 189.871 207.849L186.567 195.737C186.567 195.737 123.801 197.939 119.397 194.636Z" fill="#2F2E41"/>
<path d="M197.579 419.271C197.579 419.271 192.073 414.866 192.073 418.17C192.073 421.473 186.567 441.845 193.174 441.845C199.781 441.845 243.827 445.699 242.726 436.889C241.625 428.08 215.127 414.014 215.127 414.014C215.127 414.014 205.287 417.069 204.186 418.17C203.084 419.271 197.579 419.271 197.579 419.271Z" fill="#2F2E41"/>
<path d="M152.431 419.271C152.431 419.271 157.937 414.866 157.937 418.17C157.937 421.473 163.443 441.845 156.836 441.845C150.229 441.845 106.183 445.699 107.284 436.889C108.385 428.08 134.883 414.014 134.883 414.014C134.883 414.014 144.723 417.069 145.824 418.17C146.926 419.271 152.431 419.271 152.431 419.271Z" fill="#2F2E41"/>
<path d="M187.668 112.049L195.376 113.15L210.793 157.196C210.793 157.196 215.197 179.219 208.59 182.523C201.983 185.826 189.513 185.181 189.513 185.181L187.668 160.5L193.174 161.601L187.668 150.59V112.049Z" fill="#2F2E41"/>
<path d="M103.981 117.555L98.4749 121.96C98.4749 121.96 92.9691 178.118 94.0703 183.624C95.1715 189.13 101.778 256.3 101.778 256.3L120.498 251.896L107.284 118.656L103.981 117.555Z" fill="#2F2E41"/>
<path d="M128.184 56.0998C128.184 56.0998 122.093 48.3725 128.184 44.5088V46.4406C128.184 46.4406 141.237 31.9519 149.069 35.8156L156.031 33.8838V35.8156L160.382 33.8838L159.511 36.7815H165.603L162.992 38.7133C162.992 38.7133 183.007 37.7474 170.824 52.2361C170.824 52.2361 176.615 60.923 171.109 65.7557C171.109 65.7557 166.473 55.1339 160.382 58.0316C158.731 58.8883 156.87 59.2527 155.019 59.0814C153.167 58.9102 151.404 58.2105 149.939 57.0657C149.939 57.0657 137.757 56.0998 139.497 61.8953C141.237 67.6907 140.367 69.6226 140.367 69.6226C140.367 69.6226 136.016 72.5203 136.886 74.4521C137.757 76.384 137.757 82.1794 137.757 82.1794C137.757 82.1794 133.406 75.4181 131.665 76.384C129.925 77.3499 120.353 67.6908 128.184 56.0998Z" fill="#2F2E41"/>
<path d="M366.909 125.259L320.608 126.409L314.376 71.2H366.909V125.259Z" fill="#2F2E41"/>
<path d="M317.898 196.829L300.997 314.007C300.997 314.007 286.35 355.696 285.223 375.977L280.716 405.271L300.997 409.778L322.405 327.528L351.699 253.165L348.319 338.795L341.559 408.651L361.84 412.031L374.233 323.021L387.754 257.672C387.754 257.672 397.894 201.336 382.12 195.702L317.898 196.829Z" fill="#2F2E41"/>
<path d="M299.641 398.08L297.386 425.504C297.386 425.504 321.52 439.457 313.777 442.162C306.033 444.866 295.433 441.387 293.266 440.772C290.976 440.123 286.702 439.088 283.468 438.322C281.971 437.979 280.623 437.165 279.622 436.001C278.621 434.836 278.019 433.381 277.905 431.85L277.899 431.749C277.704 428.374 285.318 399.049 285.318 399.049L299.641 398.08Z" fill="#2F2E41"/>
<path d="M358.249 398.766L360.149 424.989C360.149 424.989 387.632 435.199 380.548 439.334C373.464 443.469 362.395 442.079 360.149 441.889C356.009 441.541 345.706 441.193 345.706 441.193C345.706 441.193 343.801 442.842 342.965 439.567C342.129 436.292 344.081 407.035 344.081 407.035L358.249 398.766Z" fill="#2F2E41"/>
<path d="M341.559 102.185C353.382 102.185 362.966 92.6003 362.966 80.7773C362.966 68.9542 353.382 59.3697 341.559 59.3697C329.736 59.3697 320.151 68.9542 320.151 80.7773C320.151 92.6003 329.736 102.185 341.559 102.185Z" fill="#FFB8B8"/>
<path d="M329.165 93.171L324.658 117.959L343.812 126.973L348.319 95.425L329.165 93.171Z" fill="#FFB8B8"/>
<path d="M326.911 210.349L350.572 227.25C350.572 227.25 360.713 253.165 368.6 248.658C376.487 244.151 359.586 221.617 359.586 221.617L340.432 202.462L326.911 210.349Z" fill="#FFB8B8"/>
<path d="M394.514 202.462L396.768 215.983C396.768 215.983 391.134 244.151 384.374 238.517C377.614 232.884 386.627 214.856 386.627 214.856L385.501 203.589L394.514 202.462Z" fill="#FFB8B8"/>
<path d="M341.559 120.212L339.305 111.199L325.785 104.438L321.278 110.072L306.631 114.579L323.531 204.716C323.531 204.716 380.994 208.096 382.12 199.082C383.247 190.069 370.853 165.281 370.853 165.281C370.853 165.281 374.233 152.887 373.107 146.127L368.6 119.086L350.572 113.452L346.455 108.471L342.685 114.579L341.559 120.212Z" fill="#D0CDE1"/>
<path d="M310.011 116.832L306.631 114.579C306.631 114.579 299.87 115.705 297.617 124.719C295.363 133.733 297.617 174.295 303.25 182.182C308.884 190.069 324.658 213.73 324.658 213.73L346.066 203.589L323.531 177.675L317.898 145L310.011 116.832Z" fill="#D0CDE1"/>
<path d="M359.586 121.339L368.6 119.086C368.6 119.086 374.233 121.339 376.487 129.226C378.74 137.113 391.134 176.548 390.007 179.928C388.881 183.308 400.148 205.843 400.148 205.843L384.374 206.969L375.36 183.308L366.346 159.647L359.586 121.339Z" fill="#D0CDE1"/>
<path d="M304.455 101.107C308.97 98.6279 311.071 93.0633 311.221 87.9149C311.371 82.7665 310.122 77.6712 310.024 72.5215C309.973 71.468 310.063 70.4124 310.291 69.3825C310.665 68.1042 311.249 66.8966 312.017 65.8087C317.888 56.8127 328.094 50.4847 338.843 50.3851C340.396 50.3648 341.938 50.6483 343.383 51.2197C344.494 51.6648 344.857 51.6103 345.07 52.9748C347.617 52.1348 350.378 52.2226 352.866 53.2227C355.33 54.2246 357.629 55.5934 359.684 57.2829C360.905 58.191 362.057 59.1885 363.13 60.2672C368.811 66.1523 370.119 75.2224 368.474 83.2348C367.939 85.8397 370.506 88.3545 372.63 89.9544C374.754 91.5544 377.207 93.0236 378.25 95.4698C379.253 97.8229 378.702 100.514 378.904 103.064C379.131 105.475 380.027 107.774 381.491 109.702C382.956 111.631 384.93 113.111 387.191 113.977C386.729 114.53 386.128 114.947 385.449 115.186C384.77 115.425 384.039 115.476 383.334 115.334C381.861 115.023 380.484 114.368 379.315 113.42C374.918 110.162 371.772 105.495 370.403 100.197C369.779 103.034 370.021 105.961 370.044 108.867C369.989 112.109 370.586 115.329 371.8 118.336C373.034 121.358 375.295 123.847 378.184 125.366C375.397 126.73 372.327 125.741 369.965 123.729C367.702 121.581 366.067 118.856 365.236 115.849C363.652 111.048 363.009 105.987 363.344 100.943C360.752 105.307 359.805 110.453 360.673 115.453C361.58 120.551 364.242 125.172 368.197 128.514C361.3 128.455 354.518 126.747 348.416 123.532C346.84 122.818 345.452 121.748 344.359 120.407C342.395 117.683 342.86 113.968 343.41 110.656C343.846 108.037 340.573 104.251 342.448 102.37C343.004 101.82 343.748 101.5 344.531 101.475C347.349 101.264 350.081 100.408 352.516 98.973C354.951 97.538 357.023 95.5624 358.573 93.1989C360.734 89.9491 361.962 86.1683 362.122 82.2687C362.121 79.4053 361.501 76.576 360.305 73.9742C359.11 71.3724 357.366 69.0594 355.195 67.1933C353.023 65.3272 350.474 63.9521 347.721 63.1619C344.969 62.3717 342.079 62.1851 339.248 62.6148C336.417 63.0445 333.712 64.0803 331.318 65.6516C328.925 67.2229 326.898 69.2925 325.378 71.7189C323.858 74.1454 322.879 76.8715 322.51 79.7109C322.14 82.5503 322.388 85.4361 323.236 88.1709C323.912 90.3717 324.396 92.6269 324.684 94.9112C325.023 97.5619 325.563 100.183 326.298 102.752C327.716 107.69 330.118 112.728 334.563 115.304C333.009 115.969 331.339 116.323 329.649 116.344C324.071 116.959 318.205 116.823 313.156 114.373C308.108 111.924 304.096 106.707 304.455 101.107Z" fill="#2F2E41"/>
<path d="M316.626 79.2521C332.645 72.8318 348.437 71.4623 363.817 79.2521V66.3112C363.817 64.0758 362.929 61.932 361.348 60.3513C359.768 58.7707 357.624 57.8827 355.388 57.8827H323.285C322.41 57.8827 321.545 58.0549 320.737 58.3895C319.929 58.7241 319.195 59.2146 318.576 59.8329C317.958 60.4512 317.468 61.1853 317.133 61.9931C316.798 62.801 316.626 63.6669 316.626 64.5413V79.2521Z" fill="#2F2E41"/>
<path d="M321.611 87.2656C322.915 87.2656 323.972 85.5743 323.972 83.488C323.972 81.4017 322.915 79.7104 321.611 79.7104C320.307 79.7104 319.25 81.4017 319.25 83.488C319.25 85.5743 320.307 87.2656 321.611 87.2656Z" fill="#FFB8B8"/>
<path d="M520 442.01H0V444.01H520V442.01Z" fill="#3F3D56"/>
<path d="M264.83 123.405C264.828 126.596 263.88 129.715 262.105 132.367C260.331 135.019 257.811 137.086 254.862 138.306C251.914 139.526 248.67 139.845 245.54 139.222C242.411 138.598 239.536 137.062 237.28 134.805C235.024 132.549 233.487 129.675 232.864 126.545C232.241 123.416 232.559 120.172 233.779 117.223C234.999 114.275 237.066 111.754 239.718 109.98C242.37 108.206 245.489 107.258 248.68 107.255C250.802 107.249 252.905 107.663 254.867 108.472C256.83 109.282 258.612 110.471 260.113 111.972C261.614 113.473 262.803 115.256 263.613 117.218C264.422 119.18 264.836 121.283 264.83 123.405V123.405Z" fill="#6C63FF"/>
<path opacity="0.3" d="M264.83 123.405C264.828 126.596 263.88 129.715 262.105 132.367C260.331 135.019 257.811 137.086 254.862 138.306C251.914 139.526 248.67 139.845 245.54 139.222C242.411 138.598 239.536 137.062 237.28 134.805C235.024 132.549 233.487 129.675 232.864 126.545C232.241 123.416 232.559 120.172 233.779 117.223C234.999 114.275 237.066 111.754 239.718 109.98C242.37 108.206 245.489 107.258 248.68 107.255C250.802 107.249 252.905 107.663 254.867 108.472C256.83 109.282 258.612 110.471 260.113 111.972C261.614 113.473 262.803 115.256 263.613 117.218C264.422 119.18 264.836 121.283 264.83 123.405V123.405Z" fill="black"/>
<path d="M294.08 41.9953C294.111 47.2731 293.023 52.4977 290.89 57.3253C289.966 59.4033 288.858 61.3945 287.58 63.2753C284.931 67.1043 281.753 70.5385 278.14 73.4753C277.52 73.9953 276.84 74.5353 275.93 75.2353C274.79 76.0853 273.52 76.9753 272.06 77.9353C269.482 79.6026 267.001 81.4156 264.63 83.3653C263.224 84.4615 262.004 85.7786 261.02 87.2653C259.79 89.4153 259.17 93.5753 259.17 99.6353V100.635H232.21V95.9553C232.21 92.2953 232.3 89.2153 232.47 86.5353C232.592 84.1067 232.846 81.6865 233.23 79.2853C233.494 77.1733 234.13 75.1249 235.11 73.2353C236.88 70.2853 241.15 66.2753 248.15 60.9753C248.45 60.7553 248.75 60.5253 249.06 60.2953C249.35 60.0953 249.63 59.8853 249.92 59.6653C252.345 57.9428 254.578 55.9648 256.58 53.7653C257.165 53.0802 257.706 52.3588 258.2 51.6053L258.33 51.4053C259.898 48.6284 260.666 45.4719 260.55 42.2853C260.558 41.4791 260.504 40.6734 260.39 39.8753C260.079 36.7621 258.634 33.872 256.33 31.7552C253.83 29.4638 250.607 28.1194 247.22 27.9552C246.79 27.9152 246.39 27.9052 245.98 27.9052C244.386 27.8964 242.798 28.0844 241.25 28.4652C238.349 29.1808 235.747 30.79 233.81 33.0652C232.784 34.2768 231.91 35.6102 231.21 37.0352C228.847 42.4854 227.336 48.2661 226.73 54.1752L226.63 55.2252L201.25 48.4652V37.2752C201.37 36.8252 201.5 36.3752 201.64 35.9352C203.26 30.3232 205.842 25.0347 209.27 20.3052C210.735 18.2983 212.386 16.4334 214.2 14.7352C214.63 14.3052 215.1 13.8852 215.57 13.4752C218.624 10.824 222.017 8.59108 225.66 6.83522L225.98 6.68523C232.88 3.496 240.409 1.89666 248.01 2.00517C248.8 2.00517 249.73 2.01517 250.65 2.06517C258.203 2.25667 265.617 4.14676 272.34 7.59517C275.359 9.15802 278.188 11.064 280.77 13.2752C288.015 19.1811 292.681 27.6726 293.78 36.9552C293.98 38.6277 294.081 40.3108 294.08 41.9953Z" fill="#6C63FF"/>
<path opacity="0.3" d="M294.08 41.9953C294.111 47.2731 293.023 52.4977 290.89 57.3253C289.966 59.4033 288.858 61.3945 287.58 63.2753C284.931 67.1043 281.753 70.5385 278.14 73.4753C277.52 73.9953 276.84 74.5353 275.93 75.2353C274.79 76.0853 273.52 76.9753 272.06 77.9353C269.482 79.6026 267.001 81.4156 264.63 83.3653C263.224 84.4615 262.004 85.7786 261.02 87.2653C259.79 89.4153 259.17 93.5753 259.17 99.6353V100.635H232.21V95.9553C232.21 92.2953 232.3 89.2153 232.47 86.5353C232.592 84.1067 232.846 81.6865 233.23 79.2853C233.494 77.1733 234.13 75.1249 235.11 73.2353C236.88 70.2853 241.15 66.2753 248.15 60.9753C248.45 60.7553 248.75 60.5253 249.06 60.2953C249.35 60.0953 249.63 59.8853 249.92 59.6653C252.345 57.9428 254.578 55.9648 256.58 53.7653C257.165 53.0802 257.706 52.3588 258.2 51.6053L258.33 51.4053C259.898 48.6284 260.666 45.4719 260.55 42.2853C260.558 41.4791 260.504 40.6734 260.39 39.8753C260.079 36.7621 258.634 33.872 256.33 31.7552C253.83 29.4638 250.607 28.1194 247.22 27.9552C246.79 27.9152 246.39 27.9052 245.98 27.9052C244.386 27.8964 242.798 28.0844 241.25 28.4652C238.349 29.1808 235.747 30.79 233.81 33.0652C232.784 34.2768 231.91 35.6102 231.21 37.0352C228.847 42.4854 227.336 48.2661 226.73 54.1752L226.63 55.2252L201.25 48.4652V37.2752C201.37 36.8252 201.5 36.3752 201.64 35.9352C203.26 30.3232 205.842 25.0347 209.27 20.3052C210.735 18.2983 212.386 16.4334 214.2 14.7352C214.63 14.3052 215.1 13.8852 215.57 13.4752C218.624 10.824 222.017 8.59108 225.66 6.83522L225.98 6.68523C232.88 3.496 240.409 1.89666 248.01 2.00517C248.8 2.00517 249.73 2.01517 250.65 2.06517C258.203 2.25667 265.617 4.14676 272.34 7.59517C275.359 9.15802 278.188 11.064 280.77 13.2752C288.015 19.1811 292.681 27.6726 293.78 36.9552C293.98 38.6277 294.081 40.3108 294.08 41.9953Z" fill="black"/>
<path d="M253.83 123.405C253.828 126.596 252.88 129.715 251.105 132.367C249.331 135.019 246.811 137.086 243.862 138.306C240.914 139.526 237.67 139.845 234.54 139.222C231.411 138.598 228.536 137.062 226.28 134.805C224.024 132.549 222.487 129.675 221.864 126.545C221.241 123.416 221.559 120.172 222.779 117.223C223.999 114.275 226.066 111.754 228.718 109.98C231.37 108.206 234.489 107.258 237.68 107.255C239.802 107.249 241.905 107.663 243.867 108.472C245.83 109.282 247.612 110.471 249.113 111.972C250.614 113.473 251.803 115.256 252.613 117.218C253.422 119.18 253.836 121.283 253.83 123.405Z" fill="#6C63FF"/>
<path d="M284.999 42.2584C285.03 47.5557 283.92 52.7996 281.742 57.645C280.798 59.7307 279.667 61.7293 278.362 63.617C275.657 67.4603 272.412 70.9071 268.722 73.8548C268.089 74.3767 267.395 74.9187 266.465 75.6213C265.301 76.4744 264.004 77.3677 262.514 78.3313C259.881 80.0047 257.348 81.8244 254.926 83.7813C253.49 84.8816 252.245 86.2036 251.24 87.6957C249.984 89.8537 249.351 94.0291 249.351 100.111V101.115H221.821V96.4179C221.821 92.7443 221.913 89.653 222.086 86.9631C222.211 84.5255 222.47 82.0963 222.862 79.6862C223.132 77.5665 223.782 75.5105 224.782 73.6139C226.589 70.653 230.95 66.6281 238.098 61.3085C238.404 61.0877 238.71 60.8569 239.027 60.626C239.323 60.4253 239.609 60.2145 239.905 59.9937C242.381 58.2649 244.661 56.2795 246.706 54.0719C247.304 53.3843 247.856 52.6601 248.36 51.9039L248.493 51.7032C250.094 48.916 250.878 45.7478 250.76 42.5494C250.768 41.7402 250.713 40.9316 250.597 40.1305C250.279 37.0058 248.803 34.105 246.451 31.9804C243.898 29.6806 240.607 28.3312 237.148 28.1664C236.709 28.1262 236.301 28.1162 235.882 28.1162C234.254 28.1073 232.632 28.2961 231.052 28.6783C228.09 29.3965 225.432 31.0116 223.454 33.2953C222.406 34.5114 221.515 35.8497 220.799 37.28C218.961 40.8832 217.766 45.6608 217.246 51.4722L217.143 52.5261L188 48.4411L188.143 47.4474C188.655 43.6315 189.478 39.8622 190.604 36.1759C192.258 30.5431 194.895 25.2351 198.395 20.4881C199.892 18.4737 201.577 16.6019 203.429 14.8975C203.869 14.4659 204.349 14.0444 204.829 13.6328C207.947 10.9718 211.412 8.73062 215.132 6.96828L215.459 6.81773C222.505 3.61671 230.193 2.01145 237.955 2.12037C238.761 2.12037 239.711 2.1304 240.65 2.18059C248.364 2.37279 255.934 4.26987 262.799 7.73103C265.882 9.29967 268.771 11.2126 271.408 13.432C278.806 19.3598 283.57 27.8827 284.693 37.1996C284.898 38.8783 285 40.5676 284.999 42.2584V42.2584Z" fill="#6C63FF"/>
</g>
<defs>
<clipPath id="clip0">
<rect width="887.5" height="444.01" fill="white"/>
</clipPath>
</defs>
</svg>
